<?xml version="1.0" encoding="UTF-8" standalone="no"?>
<svg
   height="100px"
   width="100px"
   fill="#000000"
   version="1.1"
   x="0px"
   y="0px"
   viewBox="0 0 64 64"
   enable-background="new 0 0 64 64"
   xml:space="preserve"
   id="svg16"
   sodipodi:docname="bi_atlas.svg"
   inkscape:version="1.1.1 (3bf5ae0d25, 2021-09-20)"
   xmlns:inkscape="http://www.inkscape.org/namespaces/inkscape"
   xmlns:sodipodi="http://sodipodi.sourceforge.net/DTD/sodipodi-0.dtd"
   xmlns:xlink="http://www.w3.org/1999/xlink"
   xmlns="http://www.w3.org/2000/svg"
   xmlns:svg="http://www.w3.org/2000/svg"><defs
     id="defs20"><linearGradient
       inkscape:collect="always"
       id="linearGradient1919"><stop
         style="stop-color:#14bc82;stop-opacity:1"
         offset="0"
         id="stop1915" /><stop
         style="stop-color:#696dce;stop-opacity:1"
         offset="1"
         id="stop1917" /></linearGradient><linearGradient
       inkscape:collect="always"
       id="linearGradient931-6"><stop
         style="stop-color:#2d9ad5;stop-opacity:1"
         offset="0"
         id="stop971" /><stop
         style="stop-color:#e37cd5;stop-opacity:1"
         offset="1"
         id="stop973" /></linearGradient><linearGradient
       inkscape:collect="always"
       xlink:href="#linearGradient931-6"
       id="linearGradient933"
       x1="50.238384"
       y1="74.667709"
       x2="28.364643"
       y2="19.77647"
       gradientUnits="userSpaceOnUse" /><linearGradient
       inkscape:collect="always"
       xlink:href="#linearGradient1919"
       id="linearGradient1686"
       x1="-8.6544485"
       y1="15.459686"
       x2="45.502151"
       y2="30.158548"
       gradientUnits="userSpaceOnUse" /></defs><sodipodi:namedview
     id="namedview18"
     pagecolor="#ffffff"
     bordercolor="#666666"
     borderopacity="1.0"
     inkscape:pageshadow="2"
     inkscape:pageopacity="0.0"
     inkscape:pagecheckerboard="0"
     showgrid="false"
     inkscape:zoom="4.21"
     inkscape:cx="53.325416"
     inkscape:cy="41.686461"
     inkscape:window-width="1920"
     inkscape:window-height="1019"
     inkscape:window-x="1920"
     inkscape:window-y="30"
     inkscape:window-maximized="1"
     inkscape:current-layer="svg16"
     inkscape:lockguides="false" /><g
     id="g14"><g
       id="g10"
       style="fill:url(#linearGradient1686);fill-opacity:1"><g
         id="g8"
         style="fill:url(#linearGradient1686);fill-opacity:1.0"><g
           id="g6"
           style="fill:url(#linearGradient1686);fill-opacity:1.0"><g
             id="g4"
             style="fill:url(#linearGradient1686);fill-opacity:1.0"><path
               fill="#000000"
               d="M29.532,3.87C18.505,3.861,9.422,12.83,9.447,23.852c0.025,11.236,8.895,19.993,19.85,20.079       c11.153,0.088,20.182-8.923,20.208-20.06C49.53,12.956,40.467,3.879,29.532,3.87z M21.09,37.969       c-0.374,0.063-0.711,0.072-0.928-0.303c-0.099-0.17-0.18-0.35-0.285-0.555c-1.118,0.638-2.536-0.134-2.586-1.333       c-0.007-0.171,0.08-0.348,0.13-0.521c0.06-0.209,0.203-0.428,0.174-0.622c-0.008-0.058-0.015-0.115-0.018-0.17       c-0.386-0.28-0.654-0.712-0.675-1.221c-0.007-0.171,0.08-0.348,0.13-0.521c0.06-0.209,0.202-0.428,0.174-0.622       c-0.081-0.576,0.004-1.036,0.527-1.387c0.074-0.05,0-0.444-0.105-0.618c-0.413-0.677-0.315-1.056,0.411-1.442       c0.339-0.179,0.667-0.378,0.995-0.577c0.35-0.213,0.822-0.113,1.015,0.327c0.252,0.58,0.499,1.192,0.578,1.813       c0.07,0.549,0.128,1.101,0.178,1.652c0.097,0.29,0.173,0.585,0.211,0.882c0.195,1.533,0.295,3.077,0.428,4.618       C21.468,37.644,21.472,37.905,21.09,37.969z M27.556,14.903c-0.377,0.438-0.867,0.78-1.253,1.211       c-0.288,0.322-0.491,0.723-0.73,1.09c-0.064,0.098-0.098,0.233-0.187,0.298c-0.699,0.519-1.034,1.263-1.305,2.053       c-0.131,0.382-0.269,0.762-0.414,1.17c-0.676-0.042-0.786-0.132-0.953-0.856c-0.253-1.1-1.295-1.578-2.276-1.049       c-0.133,0.071-0.275,0.126-0.417,0.177c-0.617,0.222-1.024,0.912-0.818,1.527c0.411,1.221,0.914,2.369,2.072,3.133       c0.411,0.271,0.927,0.64,0.908,1.375c-1.235-0.51-2.475-0.859-3.358-1.892c-0.183-0.214-0.502-0.331-0.779-0.445       c-0.091-0.038-0.176-0.078-0.257-0.123c0.313,0.355,0.617,0.705,0.918,1.057c0.179,0.212,0.108,0.366-0.179,0.415       c-0.211,0.036-0.417,0.099-0.728,0.175c0.157,0.34,0.356,0.591,0.373,0.854c0.023,0.343-0.043,0.721-0.186,1.03       c-0.051,0.11-0.439,0.081-0.673,0.082c-0.078,0-0.187-0.087-0.232-0.164c-0.3-0.509-0.589-1.024-0.877-1.54       c-0.049-0.087-0.13-0.2-0.107-0.276c0.159-0.544-0.101-0.901-0.499-1.211c-0.051-0.04-0.097-0.106-0.109-0.167       c-0.043-0.238-0.071-0.478-0.105-0.718c0.187,0.023,0.375,0.038,0.56,0.067c-0.043-0.076-0.086-0.152-0.129-0.229       c-0.048-0.087-0.129-0.2-0.106-0.276c0.159-0.544-0.101-0.901-0.5-1.211c-0.05-0.04-0.097-0.106-0.108-0.167       c-0.044-0.238-0.072-0.478-0.105-0.718c0.233,0.029,0.469,0.045,0.698,0.092c0.106,0.023,0.201,0.107,0.338,0.186       c0.066-0.121,0.13-0.238,0.199-0.365c-0.188-0.43-0.461-0.805-0.848-1.131c-0.711-0.598-0.91-1.369-0.517-2.22       c0.422-0.915,0.872-1.82,1.345-2.71c0.425-0.798,0.443-1.653,0.476-2.519c0.009-0.218,0.084-0.492,0.231-0.634       c0.386-0.371,0.806-0.718,1.253-1.012c0.434-0.285,0.9-0.539,1.385-0.719c0.523-0.195,1.096-0.434,1.563,0.177       c0.058,0.075,0.29,0.079,0.409,0.033c0.266-0.102,0.513-0.252,0.765-0.389c0.557-0.3,0.75-0.198,0.797,0.561       c0.276-0.098,0.561-0.13,0.748-0.282c0.51-0.412,0.489-0.428,0.901,0.039c0.092,0.103,0.232,0.164,0.303,0.091       c0.227-0.191,0.467-0.369,0.677-0.577c0.114-0.114,0.187-0.273,0.26-0.42c0.229-0.465,0.501-0.851,1.053-1.01       c0.29-0.083,0.55-0.317,0.79-0.525c0.324-0.281,0.678-0.391,1.075-0.241C29.455,6.212,30,6.461,30.47,6.659       c-0.41,0.426-0.74,0.822-1.124,1.156c-0.377,0.326-0.805,0.594-1.219,0.875c-0.108,0.074-0.279,0.07-0.369,0.157       c-0.551,0.528-1.155,0.91-1.993,0.716c-0.03,0.316-0.049,0.514-0.073,0.768c-0.364,0-0.715-0.023-1.059,0.009       c-0.206,0.019-0.437,0.084-0.588,0.211c-0.069,0.059-0.012,0.44,0.055,0.46c0.779,0.241,1.557,0.614,2.395,0.278       c0.139-0.056,0.294-0.257,0.31-0.407c0.096-0.878,0.799-1.357,1.651-1.153c0.262,0.063,0.585,0.007,0.844-0.09       c0.611-0.23,1.183-0.588,1.807-0.755c0.34-0.09,0.85-0.015,1.112,0.198c0.376,0.305,0.619,0.771,0.342,1.348       c-0.152,0.317-0.18,0.704-0.22,1.063c-0.045,0.399-0.714,0.983-1.173,0.98c-0.771-0.005-0.753-0.005-0.789,0.762       c-0.031,0.704-0.298,1.255-1.163,1.185c-0.249-0.02-0.505,0.019-0.757,0.026C28.087,14.459,27.813,14.605,27.556,14.903z        M43.659,27.806c-0.197,0.631-0.359,1.286-0.666,1.864c-0.304,0.573-0.765,1.05-0.825,1.753       c-0.015,0.177-0.279,0.353-0.457,0.493c-0.519,0.405-1.138,0.72-1.56,1.207c-0.521,0.601-0.97,1.238-1.725,1.581       c-0.151,0.069-0.292,0.293-0.323,0.465c-0.085,0.476-0.343,0.623-0.79,0.541c-0.281-0.052-0.563-0.114-0.845-0.124       c-0.711-0.023-1.082,0.4-1.128,1.194c-0.019,0.328-0.054,0.686-0.204,0.965c-0.101,0.188-0.41,0.327-0.64,0.354       c-0.12,0.014-0.311-0.245-0.402-0.418c-0.216-0.411-0.341-0.877-0.596-1.258c-0.377-0.564-0.273-1.157-0.251-1.757       c0.044-1.258-0.035-2.521-0.383-3.718c-0.12-0.413-0.748-0.694-1.172-0.995c-0.437-0.31-0.928-0.545-1.353-0.868       c-0.182-0.138-0.293-0.4-0.381-0.627c-0.337-0.859-0.641-1.73-0.977-2.589c-0.149-0.378-0.224-0.691,0.051-1.081       c0.331-0.468,0.575-1.007,0.8-1.538c0.084-0.199,0.051-0.471,0.004-0.696c-0.146-0.71,0.199-1.244,0.68-1.643       c0.448-0.37,0.999-0.628,1.529-0.882c0.209-0.1,0.486-0.061,0.914-0.102c-0.2,0.492-0.348,0.823-0.465,1.165       c-0.036,0.106-0.041,0.293,0.024,0.354c0.475,0.45,0.957,0.897,1.474,1.298c0.112,0.086,0.419,0.044,0.562-0.052       c0.707-0.466,1.729-0.306,2.184,0.399c0.239,0.37,0.577,0.532,0.983,0.481c1.058-0.135,1.473,0.041,1.856,1.016       c0.167,0.425,0.416,0.674,0.805,0.832c0.437,0.175,0.869,0.373,1.319,0.506c0.818,0.24,1.436,0.719,1.856,1.452       C43.625,27.503,43.696,27.684,43.659,27.806z M44.65,14.712c-0.211,0.036-0.417,0.099-0.728,0.175       c0.157,0.34,0.356,0.591,0.373,0.854c0.023,0.343-0.043,0.721-0.186,1.03c-0.051,0.111-0.439,0.081-0.673,0.082       c-0.078,0-0.187-0.087-0.232-0.164c-0.3-0.509-0.589-1.024-0.877-1.54c-0.049-0.087-0.13-0.2-0.107-0.276       c0.159-0.544-0.101-0.901-0.499-1.211c-0.051-0.04-0.097-0.106-0.109-0.167c-0.043-0.238-0.071-0.478-0.105-0.718       c0.187,0.023,0.375,0.038,0.56,0.067c-0.043-0.076-0.086-0.152-0.129-0.229c-0.048-0.087-0.129-0.2-0.106-0.276       c0.159-0.544-0.101-0.901-0.5-1.211c-0.05-0.04-0.097-0.106-0.108-0.167c-0.044-0.238-0.072-0.478-0.105-0.718       c0.233,0.029,0.469,0.045,0.698,0.092c0.106,0.023,0.201,0.107,0.338,0.186c0.14-0.257,0.273-0.502,0.459-0.845       c0.64,0.728,1.242,1.401,1.827,2.088c0.18,0.212,0.108,0.366-0.178,0.415c-0.211,0.036-0.418,0.099-0.728,0.175       c0.157,0.34,0.355,0.591,0.373,0.854c0.001,0.009,0.001,0.019,0.001,0.028c0.314,0.357,0.62,0.708,0.923,1.062       C45.009,14.51,44.938,14.664,44.65,14.712z"
               id="path2"
               style="fill:url(#linearGradient1686);fill-opacity:1.0" /></g></g></g></g><path
       fill="#000000"
       d="M34.395,48.642c12.59-2.562,21.142-14.118,20.067-26.646c-0.44-5.136-2.269-9.706-5.458-13.74   c-1.011-1.278-2.141-2.439-3.388-3.476l0.709-1.018c0.469-0.672,0.303-1.598-0.369-2.066s-1.598-0.303-2.066,0.369l-1.406,2.018   c-0.072,0.103-0.127,0.213-0.17,0.326c-0.152,0.346-0.151,0.706-0.003,1.04c0.102,0.274,0.284,0.52,0.542,0.7   c0.064,0.045,0.132,0.082,0.2,0.116c0.061,0.046,0.122,0.091,0.181,0.138c6.764,5.459,9.446,12.583,8.222,21.082   c-0.913,6.333-4.228,11.351-9.512,14.968c-4.71,3.225-9.957,4.438-15.62,3.66c-1.324-0.181-2.619-0.582-3.919-0.909   c-0.897-0.227-1.67,0.084-1.892,0.808c-0.022,0.073-0.038,0.144-0.05,0.214l-1.042,1.818c-0.407,0.711-0.161,1.618,0.55,2.026   c0.711,0.407,1.618,0.161,2.026-0.55l0.79-1.38c0.612,0.161,1.227,0.312,1.846,0.446c1.005,0.218,1.285,0.266,1.356,0.824h-0.001   c0.002,0.011,0.003,0.024,0.005,0.036c0.021,0.202,0.019,0.467,0.014,0.825c-0.001,0.097,0,0.193,0.001,0.289   c-0.077,1.526-0.747,3-1.756,4.134c-0.965,1.083-2.124,1.974-3.366,2.713c-2.129,1.268-4.513,1.685-6.816,2.489   c-0.525,0.183-1.469,0.39-1.839,0.815c-0.617,0.707-0.034,1.854,0.858,1.855c1.28,0.001,2.562,0.003,3.844,0.003H29.07h0.066   h12.138c1.282,0,2.564-0.001,3.844-0.003c0.892-0.001,1.475-1.148,0.858-1.855c-0.37-0.425-1.314-0.631-1.839-0.815   c-2.303-0.804-4.687-1.221-6.816-2.489c-1.243-0.739-2.402-1.63-3.366-2.713c-1.056-1.186-1.742-2.744-1.765-4.346   c-0.007-0.429-0.009-0.725,0.028-0.938h-0.01c0.014-0.123,0.031-0.246,0.05-0.371C32.95,48.912,33.674,48.789,34.395,48.642z"
       id="path12"
       style="fill:url(#linearGradient933);fill-opacity:1;fill-rule:nonzero" /></g></svg>
