<?xml version="1.0" encoding="UTF-8"?>
<svg width="1200pt" height="1200pt" version="1.1" viewBox="0 0 1200 1200" xmlns="http://www.w3.org/2000/svg">
 <g>
  <path d="m307.44 831.6 61.078 61.078-195.96 195.84 40.68 40.68 195.96-195.84 101.76 101.76c5.3984 5.3867 12.715 8.4102 20.34 8.4102s14.941-3.0234 20.34-8.4102l180.36-180.72 78.84 78.84 41.16-40.68-544.56-544.56-40.801 40.801 78.961 79.199-180.72 180c-5.3867 5.3984-8.4102 12.715-8.4102 20.34s3.0234 14.941 8.4102 20.34l101.76 101.76-195.84 196.32 40.68 40.68zm-81.48-162.84 160.32-160.32 305.28 305.28-160.2 160.32z"/>
  <path d="m1088.5 172.56-195.96 195.84-61.078-61.078 195.96-195.84-40.68-40.68-195.96 195.84-101.76-101.76c-5.5-5.1875-12.777-8.0781-20.34-8.0781s-14.84 2.8906-20.34 8.0781l-180.36 180.72-79.199-78.961-40.801 40.801 78.84 78.84 41.16 40.68 345.72 345.72 78.84 79.32 40.68-40.68-78.84-79.32 180.72-180c5.3867-5.3984 8.4102-12.715 8.4102-20.34s-3.0234-14.941-8.4102-20.34l-101.76-102.12 195.84-195.96zm-114.48 358.8-160.32 160.2-305.28-305.28 160.2-160.32z"/>
 </g>
</svg>
