<?xml version="1.0" encoding="UTF-8"?>
<svg width="1200pt" height="1200pt" version="1.1" viewBox="0 0 1200 1200" xmlns="http://www.w3.org/2000/svg">
 <g>
  <path d="m139.68 1018 120.96-120.96 42.48 42.48-120.96 120.84 33.84 33.961 120.96-120.96 84.84 84.84c4.5 4.5078 10.609 7.0391 16.98 7.0391 6.3672 0 12.477-2.5312 16.98-7.0391l159.12-159 65.762 65.762 33.961-33.961-445.56-445.56-33.84 33.961 65.762 65.762-159.12 158.88c-4.5078 4.5-7.0391 10.609-7.0391 16.98 0 6.3711 2.5312 12.477 7.0391 16.98l84.84 84.84-120.96 121.2zm195.12-398.88 246.12 246.12-142.2 142.08-246-246.12z"/>
  <path d="m1017.8 139.68-33.84-33.961-120.96 120.96-84.84-84.84c-4.5-4.5078-10.609-7.0391-16.98-7.0391-6.3672 0-12.477 2.5312-16.98 7.0391l-159.12 159-65.762-65.762-33.961 33.961 112.32 112.32-122.88 122.64 33.961 33.961 123-122.52 144 144-122.76 123.24 33.961 33.961 123-123 120.96 120.96 33.961-33.961-65.762-65.762 159-158.88c4.5078-4.5 7.0391-10.609 7.0391-16.98 0-6.3711-2.5312-12.477-7.0391-16.98l-84.84-84.84 120.96-121.2-33.961-33.961-120.96 120.96-42.48-42.48zm-152.64 441.24-246.12-246.12 142.08-142.08 246.12 246z"/>
 </g>
</svg>
