<?xml version="1.0" encoding="UTF-8" standalone="no"?>
<svg
   width="700pt"
   height="700pt"
   version="1.1"
   viewBox="0 0 700 700"
   id="svg4"
   sodipodi:docname="signal_icon.svg"
   inkscape:version="1.2 (dc2aeda, 2022-05-15)"
   xmlns:inkscape="http://www.inkscape.org/namespaces/inkscape"
   xmlns:sodipodi="http://sodipodi.sourceforge.net/DTD/sodipodi-0.dtd"
   xmlns="http://www.w3.org/2000/svg"
   xmlns:svg="http://www.w3.org/2000/svg">
  <defs
     id="defs8" />
  <sodipodi:namedview
     id="namedview6"
     pagecolor="#ffffff"
     bordercolor="#000000"
     borderopacity="0.25"
     inkscape:showpageshadow="2"
     inkscape:pageopacity="0.0"
     inkscape:pagecheckerboard="0"
     inkscape:deskcolor="#d1d1d1"
     inkscape:document-units="pt"
     showgrid="false"
     inkscape:zoom="0.44114948"
     inkscape:cx="413.69197"
     inkscape:cy="469.2287"
     inkscape:window-width="1728"
     inkscape:window-height="1080"
     inkscape:window-x="0"
     inkscape:window-y="37"
     inkscape:window-maximized="0"
     inkscape:current-layer="svg4" />
  <path
     d="m 350,19.814068 c -185.98653,0 -337.304576,151.318042 -337.304576,337.304572 0,185.98653 151.318046,337.30458 337.304576,337.30458 185.98653,0 337.30458,-151.31805 337.30458,-337.30458 C 687.30458,171.13211 535.98653,19.814068 350,19.814068 Z m 0,494.713372 c -37.19859,0 -67.46092,-30.26232 -67.46092,-67.46091 0,-37.19859 30.26233,-67.46092 67.46092,-67.46092 37.19859,0 67.46092,30.26233 67.46092,67.46092 0,37.19859 -30.26233,67.46091 -67.46092,67.46091 z m 111.18458,-146.8335 c -4.39202,4.33677 -10.11412,6.51017 -15.83082,6.51017 -5.78738,0 -11.57476,-2.21863 -15.97732,-6.65576 C 408.34534,346.32579 380.15053,334.63128 350,334.63128 c -30.15053,0 -58.34534,11.69528 -79.37259,32.91707 -8.73882,8.82916 -22.95855,8.88441 -31.80814,0.14054 -8.81913,-8.74884 -8.88441,-22.97911 -0.14054,-31.80814 29.54403,-29.81002 69.08255,-46.22422 111.32079,-46.22422 42.23825,0 81.78191,16.41292 111.32593,46.22422 8.73883,8.82915 8.67355,23.05878 -0.14055,31.81328 z m 63.69082,-63.70623 c -4.39203,4.39202 -10.1442,6.59048 -15.9015,6.59048 -5.7523,0 -11.50948,-2.19846 -15.90151,-6.59048 -38.23813,-38.24327 -89.04969,-59.30393 -143.06854,-59.30393 -54.01884,0 -104.83554,21.06194 -143.08138,59.30393 -8.78393,8.78392 -23.01381,8.78392 -31.79787,0 -8.78392,-8.78393 -8.78392,-23.01381 0,-31.79787 46.7305,-46.74077 108.8408,-72.48 174.87155,-72.48 66.03074,0 128.14618,25.73923 174.87154,72.48 8.78392,8.78393 8.78392,23.01381 0,31.79787 z"
     id="path2"
     style="stroke-width:1.28497;fill:#70eb80;fill-opacity:1" />
</svg>
