<?xml version="1.0" encoding="UTF-8" standalone="no"?>
<svg
   width="1200pt"
   height="1200pt"
   version="1.1"
   viewBox="0 0 1200 1200"
   id="svg151"
   sodipodi:docname="viewport_icon.svg"
   inkscape:version="1.2 (dc2aeda, 2022-05-15)"
   xmlns:inkscape="http://www.inkscape.org/namespaces/inkscape"
   xmlns:sodipodi="http://sodipodi.sourceforge.net/DTD/sodipodi-0.dtd"
   xmlns="http://www.w3.org/2000/svg"
   xmlns:svg="http://www.w3.org/2000/svg">
  <defs
     id="defs155" />
  <sodipodi:namedview
     id="namedview153"
     pagecolor="#ffffff"
     bordercolor="#000000"
     borderopacity="0.25"
     inkscape:showpageshadow="2"
     inkscape:pageopacity="0.0"
     inkscape:pagecheckerboard="0"
     inkscape:deskcolor="#d1d1d1"
     inkscape:document-units="pt"
     showgrid="false"
     inkscape:zoom="0.1475"
     inkscape:cx="410.16949"
     inkscape:cy="800"
     inkscape:window-width="1728"
     inkscape:window-height="1080"
     inkscape:window-x="0"
     inkscape:window-y="37"
     inkscape:window-maximized="0"
     inkscape:current-layer="svg151" />
  <g
     id="g149"
     style="fill:#ffffff;fill-opacity:1">
    <path
       d="m389.28 959.28h-263.04-37.441l24 24v-260.64-412.08-94.078l-24 24h263.04 37.441l-24-24v260.64 412.08 94.078c0 30.961 48 30.961 48 0v-260.64-412.08-94.078c0-12.961-11.039-24-24-24h-263.04-37.441c-12.961 0-24 11.039-24 24v260.64 412.08 94.078c0 12.961 11.039 24 24 24h263.04 37.441c30.719 0 30.719-48 0-48z"
       id="path141"
       style="fill:#ffffff;fill-opacity:1" />
    <path
       d="m1111 477.36h-214.8-342-78l24 24v-249.36-35.52l-24 24h214.8 342 78c-7.9219-7.9219-16.078-16.078-24-24v249.36 35.52c0 30.961 48 30.961 48 0v-249.36-35.52c0-12.961-11.039-24-24-24h-214.8-342-78c-12.961 0-24 11.039-24 24v249.36 35.52c0 12.961 11.039 24 24 24h214.8 342 78c30.961 0 30.961-48 0-48z"
       id="path143"
       style="fill:#ffffff;fill-opacity:1" />
    <path
       d="m746.88 959.28h-236.88-33.602c7.9219 7.9219 16.078 16.078 24 24v-346.56-49.922c-7.9219 7.9219-16.078 16.078-24 24h236.88 33.602l-24-24v346.56 49.922c0 30.961 48 30.961 48 0v-346.56-49.922c0-12.961-11.039-24-24-24h-236.88-33.602c-12.961 0-24 11.039-24 24v346.56 49.922c0 12.961 11.039 24 24 24h236.88 33.602c30.961 0 30.961-48 0-48z"
       id="path145"
       style="fill:#ffffff;fill-opacity:1" />
    <path
       d="m1111 959.28h-233.04-33.359l24 24v-346.56-49.922l-24 24h233.04 33.359c-7.9219-7.9219-16.078-16.078-24-24v346.56 49.922c0 30.961 48 30.961 48 0v-346.56-49.922c0-12.961-11.039-24-24-24h-233.04-33.359c-12.961 0-24 11.039-24 24v346.56 49.922c0 12.961 11.039 24 24 24h233.04 33.359c30.961 0 30.961-48 0-48z"
       id="path147"
       style="fill:#ffffff;fill-opacity:1" />
  </g>
</svg>
