<?xml version="1.0" encoding="UTF-8" standalone="no"?>
<!-- Created with Inkscape (http://www.inkscape.org/) -->

<svg
   width="11.999496mm"
   height="11.999535mm"
   viewBox="0 0 11.999496 11.999535"
   version="1.1"
   id="svg4238"
   sodipodi:docname="coin_label_divider.svg"
   inkscape:version="1.1.2 (0a00cf5339, 2022-02-04)"
   xmlns:inkscape="http://www.inkscape.org/namespaces/inkscape"
   xmlns:sodipodi="http://sodipodi.sourceforge.net/DTD/sodipodi-0.dtd"
   xmlns="http://www.w3.org/2000/svg"
   xmlns:svg="http://www.w3.org/2000/svg">
  <sodipodi:namedview
     id="namedview4240"
     pagecolor="#ffffff"
     bordercolor="#666666"
     borderopacity="1.0"
     inkscape:pageshadow="2"
     inkscape:pageopacity="0.0"
     inkscape:pagecheckerboard="true"
     inkscape:document-units="mm"
     showgrid="false"
     fit-margin-top="0"
     fit-margin-left="0"
     fit-margin-right="0"
     fit-margin-bottom="0"
     inkscape:snap-bbox="true"
     inkscape:bbox-nodes="true"
     inkscape:bbox-paths="true"
     inkscape:snap-bbox-midpoints="true"
     inkscape:snap-bbox-edge-midpoints="true"
     inkscape:snap-center="true"
     inkscape:snap-object-midpoints="true"
     inkscape:snap-page="false"
     inkscape:zoom="10.248373"
     inkscape:cx="22.052282"
     inkscape:cy="30.199917"
     inkscape:window-width="1536"
     inkscape:window-height="969"
     inkscape:window-x="2144"
     inkscape:window-y="244"
     inkscape:window-maximized="0"
     inkscape:current-layer="layer1"
     inkscape:snap-global="false" />
  <defs
     id="defs4235" />
  <g
     inkscape:label="Layer 1"
     inkscape:groupmode="layer"
     id="layer1"
     transform="translate(-119.93329,-53.984948)">
    <path
       style="fill:#fefffe;stroke:#000000;stroke-width:0.264583px;stroke-linecap:butt;stroke-linejoin:miter;stroke-opacity:1;fill-opacity:1"
       d="m 122.64327,54.212383 0.0257,0.309705 -0.32146,0.306386 -0.29889,0.124972 -0.51601,-0.173199 -1.36312,1.130636 -0.10033,7.998031 1.45869,1.299177 0.31994,-0.167765 0.5354,0.110585 0.26713,0.313899 -0.0291,0.310046 6.53622,-0.02902 0.17023,-0.460203 0.38695,-0.319012 0.62079,0.262057 1.51993,-1.27922 -0.0766,-7.89279 -1.40593,-1.274473 -0.6111,0.159958 -0.39574,-0.20737 -0.22869,-0.520326 z"
       id="path5042" />
    <g
       id="g482"
       transform="matrix(0.35277777,0,0,-0.35277777,129.57294,59.19724)">
      <path
         d="M -0.30868111,-19.239429 H -20.329 l 0.158,0.623 c 0.117,0.462 -0.011,0.935 -0.341,1.263 -0.506,0.508 -1.38,0.505 -1.882,0.003 l -0.325,-0.326 -4.606,3.889 V 9.322 l 4.606,3.889 0.325,-0.325 c 0.502,-0.502 1.38,-0.501 1.88,0.001 0.332,0.331 0.46,0.803 0.343,1.265 l -0.158,0.623 h 20.02031889 l -0.157,-0.622 c -0.116,-0.463 0.011,-0.936 0.341,-1.264 0.505,-0.508 1.37900001,-0.503 1.88100001,-0.003 l 0.326,0.325 4.607,-3.889 v -23.109429 l -4.608,-3.889 -0.325,0.326 c -0.503,0.504 -1.37900001,0.503 -1.87900001,-0.001 -0.332,-0.33 -0.459,-0.802 -0.343,-1.266 z m -19.13099989,1 h 17.9319999 c 0.009,0.596 0.244,1.164 0.67799999,1.595 0.766,0.768 2.04800001,0.885 2.93400001,0.297 l 3.585,3.025 V 8.857 l -3.586,3.027 c -0.884,-0.59 -2.16600001,-0.476 -2.93500001,0.298 -0.43199999,0.429 -0.66699999,0.998 -0.67599999,1.593 H -19.128 c -0.009,-0.594 -0.245,-1.164 -0.679,-1.595 -0.763,-0.769 -2.046,-0.886 -2.933,-0.296 l -3.585,-3.027 v -22.179429 l 3.585,-3.026 c 0.885,0.591 2.168,0.473 2.935,-0.298 0.425,-0.422 0.662,-0.998 0.674,-1.593"
         style="fill:#000000;fill-opacity:1;fill-rule:nonzero;stroke:none"
         id="path484"
         sodipodi:nodetypes="cccccccccscccccccccccccccccccccccccccccccc" />
    </g>
  </g>
</svg>
