<?xml version="1.0" encoding="UTF-8" standalone="no"?>
<!-- Created with Inkscape (http://www.inkscape.org/) -->

<svg
   width="56.691849"
   height="56.691635"
   viewBox="0 0 14.999719 14.999662"
   version="1.1"
   id="svg2731"
   inkscape:version="1.1.2 (0a00cf5339, 2022-02-04)"
   sodipodi:docname="copper_coin_divider.svg"
   xmlns:inkscape="http://www.inkscape.org/namespaces/inkscape"
   xmlns:sodipodi="http://sodipodi.sourceforge.net/DTD/sodipodi-0.dtd"
   xmlns="http://www.w3.org/2000/svg"
   xmlns:svg="http://www.w3.org/2000/svg">
  <sodipodi:namedview
     id="namedview2733"
     pagecolor="#ffffff"
     bordercolor="#666666"
     borderopacity="1.0"
     inkscape:pageshadow="2"
     inkscape:pageopacity="0.0"
     inkscape:pagecheckerboard="0"
     inkscape:document-units="px"
     showgrid="false"
     fit-margin-top="0"
     fit-margin-left="0"
     fit-margin-right="0"
     fit-margin-bottom="0"
     inkscape:zoom="8.4863924"
     inkscape:cx="9.6625275"
     inkscape:cy="19.030466"
     inkscape:window-width="1920"
     inkscape:window-height="1019"
     inkscape:window-x="1920"
     inkscape:window-y="30"
     inkscape:window-maximized="1"
     inkscape:current-layer="layer1"
     units="px" />
  <defs
     id="defs2728" />
  <g
     inkscape:label="Layer 1"
     inkscape:groupmode="layer"
     id="layer1"
     transform="translate(-72.493288,-86.691912)">
    <g
       id="g486"
       transform="matrix(0.35277777,0,0,-0.35277777,87.721152,91.50948)">
      <path
         d="m -1.293425,-19.935533 -10e-4,24.800533 -6.536,8.229 H -36.064 l -6.538,-8.229 -0.001,-24.800533 6.54,-8.232 h 28.228575 z"
         style="fill:#ffffff;fill-opacity:1;fill-rule:nonzero;stroke:none"
         id="path488"
         sodipodi:nodetypes="ccccccccc" />
    </g>
    <g
       id="g490"
       transform="matrix(0.35277777,0,0,-0.35277777,85.509377,94.612126)">
      <path
         d="M -1.2091107,-20.067725 H -30.064 l -6.832,8.599 10e-4,25.324725 6.829,8.595 h 28.8608893 l 6.827,-8.595 10e-4,-25.324725 z m -28.3118893,1.125 h 27.7688893 l 6.25,7.866 -10e-4,24.540725 -6.245,7.862 H -29.523 l -6.247,-7.862 -10e-4,-24.540725 z"
         style="fill:#000000;fill-opacity:1;fill-rule:nonzero;stroke:none"
         id="path492"
         sodipodi:nodetypes="cccccccccccccccccc" />
    </g>
    <g
       id="g494"
       transform="matrix(0.35277777,0,0,-0.35277777,72.841762,90.718129)">
      <path
         d="M 0,0 -0.465,0.379 8.246,11.04 8.711,10.661 Z"
         style="fill:#000000;fill-opacity:1;fill-rule:nonzero;stroke:none"
         id="path496" />
    </g>
    <g
       id="g498"
       transform="matrix(0.35277777,0,0,-0.35277777,87.158727,90.718129)">
      <path
         d="M 0,0 -8.71,10.661 -8.245,11.04 0.465,0.379 Z"
         style="fill:#000000;fill-opacity:1;fill-rule:nonzero;stroke:none"
         id="path500" />
    </g>
    <g
       id="g502"
       transform="matrix(0.35277777,0,0,-0.35277777,75.74978,101.67257)">
      <path
         d="M 0,0 -8.708,10.665 -8.243,11.044 0.465,0.379 Z"
         style="fill:#000000;fill-opacity:1;fill-rule:nonzero;stroke:none"
         id="path504" />
    </g>
    <g
       id="g506"
       transform="matrix(0.35277777,0,0,-0.35277777,84.250709,101.67257)">
      <path
         d="M 0,0 -0.465,0.379 8.243,11.044 8.708,10.665 Z"
         style="fill:#000000;fill-opacity:1;fill-rule:nonzero;stroke:none"
         id="path508" />
    </g>
  </g>
</svg>
