<?xml version="1.0" encoding="UTF-8" standalone="no"?>
<!-- Created with Inkscape (http://www.inkscape.org/) -->

<svg
   width="18.5mm"
   height="18.5mm"
   viewBox="0 0 18.5 18.5"
   version="1.1"
   id="svg1802"
   sodipodi:docname="5e_box.svg"
   inkscape:export-filename="/home/lukekaalim/Projects/atlas/sesame/www/public/2d/5e_box_selected.png"
   inkscape:export-xdpi="384.43243"
   inkscape:export-ydpi="384.43243"
   inkscape:version="1.1.1 (3bf5ae0d25, 2021-09-20)"
   xmlns:inkscape="http://www.inkscape.org/namespaces/inkscape"
   xmlns:sodipodi="http://sodipodi.sourceforge.net/DTD/sodipodi-0.dtd"
   xmlns="http://www.w3.org/2000/svg"
   xmlns:svg="http://www.w3.org/2000/svg">
  <sodipodi:namedview
     id="namedview1804"
     pagecolor="#ffffff"
     bordercolor="#666666"
     borderopacity="1.0"
     inkscape:pageshadow="2"
     inkscape:pageopacity="0.0"
     inkscape:pagecheckerboard="0"
     inkscape:document-units="mm"
     showgrid="false"
     inkscape:zoom="6.0007856"
     inkscape:cx="9.4154339"
     inkscape:cy="24.41347"
     inkscape:window-width="1920"
     inkscape:window-height="1019"
     inkscape:window-x="1920"
     inkscape:window-y="30"
     inkscape:window-maximized="1"
     inkscape:current-layer="layer2"
     inkscape:snap-global="false" />
  <defs
     id="defs1799" />
  <g
     inkscape:groupmode="layer"
     id="layer2"
     inkscape:label="Layer 2"
     style="display:inline">
    <g
       id="g18"
       transform="matrix(0.31400205,0,0,-0.351262,-64.125597,-99.573969)"
       style="display:inline">
      <path
         d="m 216.17878,-290.99467 c 0.83242,0.27951 1.73077,0.45753 2.71331,0.45753 h 3.52824 c 0.46943,-0.48332 0.96666,-0.92503 1.47898,-1.34097 -1.84673,0.59229 -4.89761,1.32516 -7.72053,0.88344 m -5.55051,-4.3681 c -0.26609,-0.36769 -0.49484,-0.71541 -0.69024,-1.03318 v -7.71219 l 0.9325,3.63358 c -0.58937,2.02308 -0.44083,3.94302 -0.24226,5.11179 m 45.93869,-5.04525 c 0.74981,2.51639 0.28515,4.93544 0.081,5.76231 -0.70295,0.86098 -1.58224,1.75024 -2.65215,2.48311 -3.86343,1.95737 -9.52436,0.0765 -11.15742,-0.54321 -2.63467,-1.79931 -5.7062,-2.77259 -8.92149,-2.77259 -3.21688,0 -6.28921,0.97328 -8.92387,2.77342 -1.63704,0.61974 -7.30908,2.50474 -11.17093,0.53406 -1.06276,-0.72954 -1.93649,-1.61298 -2.63626,-2.4698 -0.20254,-0.82271 -0.67038,-3.24925 0.0802,-5.7673 l 0.0183,-0.0582 -0.0159,-0.0574 -1.33044,-5.18333 v -8.01248 l 1.34553,-5.23907 -0.0183,-0.0574 c -0.74981,-2.51722 -0.28515,-4.93627 -0.081,-5.76314 0.70295,-0.86098 1.58223,-1.74941 2.65215,-2.48228 3.86343,-1.9582 9.52435,-0.0765 11.15742,0.54238 2.63467,1.79931 5.7062,2.77259 8.92149,2.77259 3.21688,0 6.28921,-0.97328 8.92387,-2.77343 1.63704,-0.61973 7.30988,-2.50473 11.17093,-0.53405 1.06276,0.72954 1.93648,1.61298 2.63626,2.4698 0.20254,0.82271 0.67038,3.24925 -0.0802,5.76813 l -0.0183,0.0574 0.0159,0.0574 1.33123,5.18333 v 8.01248 l -1.34632,5.23906 z m -7.11686,12.79154 h 2.51552 l -0.57268,0.79859 h -6.41788 c -0.18666,0.007 -0.36538,0.03 -0.55521,0.03 v -0.03 h -3.93255 c 0.27721,-0.25039 0.53853,-0.51908 0.78794,-0.79859 h 6.63631 c 4.92621,-1.14131 8.4203,-4.41136 9.98346,-6.15245 v -1.52563 c -1.57587,2.27348 -4.53223,5.38131 -8.95405,5.38131 h -9.86432 c -0.10723,0.20131 -0.30501,0.34356 -0.54012,0.34356 -0.34472,0 -0.6259,-0.29448 -0.6259,-0.65551 0,-0.36186 0.28118,-0.6555 0.6259,-0.6555 0.23511,0 0.43289,0.14225 0.54012,0.34356 h 5.44885 c -2.91347,-2.77925 -6.64585,-4.31737 -10.60857,-4.31737 -3.96273,0 -7.69431,1.53812 -10.60857,4.31737 h 5.44805 c 0.10723,-0.20131 0.30501,-0.34356 0.54012,-0.34356 0.34472,0 0.6259,0.29364 0.6259,0.6555 0,0.36103 -0.28118,0.65551 -0.6259,0.65551 -0.23511,0 -0.43289,-0.14225 -0.54012,-0.34356 h -9.86431 c -4.42262,0 -7.37977,-3.1095 -8.95406,-5.38214 v 1.52563 c 1.56078,1.74109 5.05011,5.00947 9.97552,6.15162 h 6.64266 c 0.24941,0.28117 0.51073,0.54903 0.78715,0.80025 h -3.93016 v 0.03 c -0.18904,0 -0.36855,-0.0233 -0.55521,-0.03 h -6.41868 l -0.57348,-0.80025 h 2.51394 c -3.9945,-1.31933 -6.90637,-3.91308 -8.44174,-5.55517 v 2.10544 c 0,0 2.89599,1.80514 3.63468,3.44973 h 1.54887 l 1.01987,1.42415 h 5.79278 c 2.24308,0.29697 5.07235,0.846 6.41073,1.81678 0,0 0.95156,0.60477 0.95156,-0.38349 0,-0.60393 -2.17557,-1.12135 -3.86344,-1.43329 h 2.16286 c 0.081,0.0824 0.18904,0.13393 0.31057,0.13393 0.0945,0 0.17633,-0.0374 0.24941,-0.0907 1.63306,1.20204 3.61641,1.91329 5.75941,1.91329 2.143,0 4.12714,-0.71125 5.761,-1.91329 0.0723,0.0532 0.15489,0.0907 0.24941,0.0907 0.12153,0 0.23034,-0.0516 0.31057,-0.13393 h 2.16286 c -1.68787,0.31194 -3.86344,0.82936 -3.86344,1.43329 0,0.98826 0.95156,0.38349 0.95156,0.38349 1.33838,-0.97078 4.16765,-1.51981 6.41073,-1.81678 h 5.79278 l 1.01828,-1.42249 h 1.55046 c 0.73869,-1.64625 3.63547,-3.44973 3.63547,-3.44973 v -2.10627 c -1.53695,1.64293 -4.45042,4.23667 -8.44491,5.556 m -9.3933,0.64802 c -0.0413,-0.0141 -0.0842,-0.0275 -0.13106,-0.0275 -0.24623,0 -0.44639,0.20963 -0.44639,0.46751 0,0.004 0.002,0.007 0.002,0.0116 -1.57588,1.1696 -3.4933,1.86337 -5.5664,1.86337 -2.07231,0 -3.98973,-0.69377 -5.56481,-1.86253 0,-0.004 0.002,-0.008 0.002,-0.0125 0,-0.25788 -0.20016,-0.46751 -0.44639,-0.46751 -0.0469,0 -0.0898,0.0133 -0.13185,0.0275 -0.2375,-0.20463 -0.46466,-0.42175 -0.68309,-0.64885 h 0.7236 c 1.62115,1.51815 3.75382,2.449 6.10016,2.449 2.34634,0 4.47981,-0.93085 6.10096,-2.449 h 0.72281 c -0.21764,0.2271 -0.44481,0.44422 -0.6823,0.64885 m 16.90571,-13.5061 0.9325,-3.63025 v 7.70886 c -0.19619,0.31611 -0.42335,0.66383 -0.68944,1.02985 0.19778,-1.1696 0.34631,-3.08787 -0.24306,-5.10846 m -8.02155,9.93742 h -3.53063 c -0.46863,-0.48415 -0.96666,-0.92503 -1.47897,-1.3418 1.84673,0.59146 4.8976,1.32433 7.72211,0.88427 -0.83242,0.27868 -1.72997,0.45753 -2.71251,0.45753 m -8e-4,-38.34965 c 0.98254,0 1.88089,0.17719 2.71331,0.4567 -2.82292,-0.44172 -5.873,0.29115 -7.72053,0.88427 0.51232,-0.41594 1.00955,-0.85765 1.47898,-1.34097 z m 8.26382,4.8248 c 0.26609,0.36852 0.49484,0.71624 0.69103,1.03401 v 7.71135 l -0.93329,-3.63357 c 0.58937,-2.02309 0.44083,-3.94219 0.24226,-5.11179 m 0.69103,-0.0674 v -1.52563 c -1.56157,-1.74026 -5.0509,-5.00864 -9.97631,-6.15079 h -6.64266 c -0.24941,-0.282 -0.51073,-0.54903 -0.78715,-0.80108 h 3.93016 v -0.0291 c 0.18904,0 0.36935,0.0225 0.55521,0.0291 h 6.41868 l 0.57348,0.80108 h -2.51314 c 3.9937,1.31933 6.90557,3.91225 8.44173,5.55517 v -2.10627 c 0,0 -2.89678,-1.80514 -3.63547,-3.4489 h -1.54887 l -1.01987,-1.42498 h -5.79278 c -2.24308,-0.29697 -5.07235,-0.846 -6.41073,-1.81678 0,0 -0.95156,-0.60394 -0.95156,0.38348 0,0.60477 2.17557,1.12219 3.86344,1.4333 h -2.16286 c -0.0802,-0.0824 -0.18904,-0.1331 -0.31057,-0.1331 -0.0945,0 -0.17633,0.0374 -0.24941,0.0899 -1.63306,-1.20121 -3.61641,-1.91329 -5.75941,-1.91329 -2.143,0 -4.12714,0.71208 -5.761,1.91329 -0.0723,-0.0524 -0.15489,-0.0899 -0.24941,-0.0899 -0.12153,0 -0.22955,0.0507 -0.31057,0.1331 h -2.16286 c 1.68787,-0.31111 3.86344,-0.82853 3.86344,-1.4333 0,-0.98742 -0.95156,-0.38348 -0.95156,-0.38348 -1.33838,0.97078 -4.16765,1.51981 -6.41073,1.81678 h -5.79278 l -1.01828,1.42332 h -1.55046 c -0.73869,1.64542 -3.63468,3.4489 -3.63468,3.4489 v 2.1071 c 1.53616,-1.64376 4.44963,-4.23667 8.44412,-5.556 h -2.51476 l 0.57268,-0.79942 h 6.41788 c 0.18746,-0.007 0.36538,-0.0291 0.55521,-0.0291 v 0.0291 h 3.93254 c -0.2772,0.25122 -0.53853,0.51908 -0.78793,0.79942 h -6.63631 c -4.92621,1.14048 -8.4203,4.41136 -9.98267,6.15162 v 1.52563 c 1.57508,-2.27348 4.53144,-5.38048 8.95326,-5.38048 h 9.86432 c 0.10723,-0.20214 0.30501,-0.34439 0.54012,-0.34439 0.34472,0 0.6259,0.29448 0.6259,0.65634 0,0.36102 -0.28118,0.6555 -0.6259,0.6555 -0.23511,0 -0.43289,-0.14225 -0.54012,-0.34356 h -5.44805 c 2.91346,2.77842 6.64505,4.31653 10.60777,4.31653 3.96272,0 7.6951,-1.53811 10.60936,-4.31653 h -5.44884 c -0.10723,0.20131 -0.30501,0.34356 -0.54012,0.34356 -0.34472,0 -0.6259,-0.29448 -0.6259,-0.6555 0,-0.36186 0.28118,-0.65634 0.6259,-0.65634 0.23511,0 0.43289,0.14225 0.54012,0.34439 h 9.86431 c 4.42262,0 7.37977,3.10867 8.95485,5.38131 m -17.15433,-7.67725 h -0.7236 c -1.62115,-1.51815 -3.75382,-2.44983 -6.10016,-2.44983 -2.34634,0 -4.47981,0.93168 -6.10096,2.44983 h -0.72281 c 0.21764,-0.22793 0.44481,-0.44421 0.6823,-0.64885 0.0413,0.0133 0.0842,0.0274 0.13106,0.0274 0.24623,0 0.44639,-0.20963 0.44639,-0.46834 0,0 -0.002,-0.007 -0.002,-0.0108 1.57587,-1.17043 3.4933,-1.86421 5.5664,-1.86421 2.07231,0 3.98973,0.69378 5.56481,1.86337 0,0.003 -0.002,0.007 -0.002,0.007 0,0.26287 0.20016,0.4725 0.44639,0.4725 0.0469,0 0.0898,-0.0141 0.13185,-0.0274 0.2375,0.20464 0.46466,0.42092 0.68309,0.64885 m -29.87095,12.85642 -0.9317,3.63025 v -7.70803 c 0.1954,-0.31611 0.42256,-0.66383 0.68865,-1.03068 -0.19778,1.17043 -0.34631,3.08787 0.24305,5.10846 m 11.55219,-9.93659 c 0.46863,0.48415 0.96666,0.92503 1.47897,1.3418 -1.84673,-0.59229 -4.8976,-1.32516 -7.72211,-0.8851 0.83242,-0.27868 1.72997,-0.4567 2.71251,-0.4567 z"
         style="fill:#dedfdf;fill-opacity:1;fill-rule:nonzero;stroke:none;stroke-width:0.81286"
         id="path20"
         sodipodi:nodetypes="csccccccccccccscccccccccccccscccccccccccccccccccccscsssccsccssscsccccccccccccccccccsccscscsccscccccccccsscscsscccscccccccccccccscccscccccccccccccccccccccccsccscscsccsccccccccccccccccccscsssccsccssscscccscccsccsccsccccccccccsc" />
    </g>
  </g>
  <g
     inkscape:label="Layer 1"
     inkscape:groupmode="layer"
     id="layer1"
     style="display:inline">
    <path
       d="M 15.882161,3.8486562 V 14.825949 l -1.096275,1.180115 H 3.7505213 L 2.6516314,14.825949 V 3.8486562 L 3.7505213,2.6657372 H 14.785886 Z"
       style="fill:#ffffff;fill-opacity:1;fill-rule:nonzero;stroke:none;stroke-width:0.270816"
       id="path260" />
    <g
       id="g274"
       transform="matrix(0.26101905,0,0,-0.26101905,14.794365,2.4569236)">
      <path
         d="m 0,0 h -42.215 l -5.012,-5.013 v -42.269149 l 5.012,-5.012 H 0 l 5.013,5.012 V -5.013 Z M 3.638,-5.583 V -9.458 C 3.23,-8.236 2.651,-6.933 1.839,-5.702 v 0.071 H 1.793 c -1.155,1.727 -2.782,3.294 -5.07,4.256 h 2.707 z m -8.852,-45.336149 h -31.812 c -2.614,0.632 -4.706,2.072 -6.278,4.279 V -5.677 c 1.367,1.915 3.37,3.579 6.303,4.302 h 31.812 c 2.614,-0.632 4.706,-2.071 6.278,-4.278 v -40.964149 c -1.366,-1.915 -3.37,-3.579 -6.303,-4.302 M -45.852,-11.729 c 0.302,1.417 0.842,3.181 1.798,4.873 v -38.597149 c -0.167,0.297 -0.343,0.579 -0.495,0.899 -0.657,1.384 -1.057,2.775 -1.303,3.939 z m 47.691,4.888 c 0.167,-0.297 0.344,-0.579 0.495,-0.898 0.657,-1.385 1.058,-2.776 1.304,-3.94 v -28.885149 c -0.303,-1.418 -0.843,-3.182 -1.799,-4.873 z m -43.483,5.466 h 2.707 c -2.289,-0.962 -3.915,-2.529 -5.071,-4.256 h -0.046 v -0.071 c -0.812,-1.231 -1.391,-2.534 -1.798,-3.756 v 3.875 z m -4.208,-45.337149 v 3.876 c 0.407,-1.221 0.986,-2.525 1.798,-3.755 v -0.072 h 0.046 c 1.156,-1.726 2.782,-3.294 5.071,-4.256 h -2.707 z m 45.282,-4.207 h -2.707 c 2.288,0.962 3.915,2.53 5.07,4.256 h 0.046 v 0.072 c 0.812,1.23 1.391,2.534 1.799,3.755 v -3.876 z"
         style="fill:#000000;fill-opacity:1;fill-rule:nonzero;stroke:none"
         id="path276"
         sodipodi:nodetypes="cccccccccccccccccccccccccccccccccccccccccccccccccccccccccccccc" />
    </g>
  </g>
</svg>
