<?xml version="1.0" encoding="UTF-8" standalone="no"?>
<!-- Created with Inkscape (http://www.inkscape.org/) -->

<svg
   width="37mm"
   height="37mm"
   viewBox="0 0 37 37"
   version="1.1"
   id="svg1802"
   sodipodi:docname="5e_feature_box.svg"
   inkscape:export-filename="/home/lukekaalim/Projects/atlas/wildspace/www2/public/2d/5e_feature_box.png"
   inkscape:export-xdpi="384.43243"
   inkscape:export-ydpi="384.43243"
   inkscape:version="1.1.1 (3bf5ae0d25, 2021-09-20)"
   xmlns:inkscape="http://www.inkscape.org/namespaces/inkscape"
   xmlns:sodipodi="http://sodipodi.sourceforge.net/DTD/sodipodi-0.dtd"
   xmlns="http://www.w3.org/2000/svg"
   xmlns:svg="http://www.w3.org/2000/svg">
  <sodipodi:namedview
     id="namedview1804"
     pagecolor="#ffffff"
     bordercolor="#666666"
     borderopacity="1.0"
     inkscape:pageshadow="2"
     inkscape:pageopacity="0.0"
     inkscape:pagecheckerboard="0"
     inkscape:document-units="mm"
     showgrid="false"
     inkscape:zoom="4.238864"
     inkscape:cx="63.224487"
     inkscape:cy="73.48667"
     inkscape:window-width="1920"
     inkscape:window-height="1019"
     inkscape:window-x="1920"
     inkscape:window-y="30"
     inkscape:window-maximized="1"
     inkscape:current-layer="layer4"
     inkscape:snap-global="true"
     inkscape:lockguides="true"
     width="37mm"
     inkscape:snap-center="true"
     inkscape:snap-object-midpoints="true" />
  <defs
     id="defs1799" />
  <g
     inkscape:groupmode="layer"
     id="layer2"
     inkscape:label="Layer 2"
     style="display:none">
    <g
       id="g18"
       transform="matrix(0.31400205,0,0,-0.351262,-64.125597,-99.573969)"
       style="display:inline">
      <path
         d="m 216.17878,-290.99467 c 0.83242,0.27951 1.73077,0.45753 2.71331,0.45753 h 3.52824 c 0.46943,-0.48332 0.96666,-0.92503 1.47898,-1.34097 -1.84673,0.59229 -4.89761,1.32516 -7.72053,0.88344 m -5.55051,-4.3681 c -0.26609,-0.36769 -0.49484,-0.71541 -0.69024,-1.03318 v -7.71219 l 0.9325,3.63358 c -0.58937,2.02308 -0.44083,3.94302 -0.24226,5.11179 m 45.93869,-5.04525 c 0.74981,2.51639 0.28515,4.93544 0.081,5.76231 -0.70295,0.86098 -1.58224,1.75024 -2.65215,2.48311 -3.86343,1.95737 -9.52436,0.0765 -11.15742,-0.54321 -2.63467,-1.79931 -5.7062,-2.77259 -8.92149,-2.77259 -3.21688,0 -6.28921,0.97328 -8.92387,2.77342 -1.63704,0.61974 -7.30908,2.50474 -11.17093,0.53406 -1.06276,-0.72954 -1.93649,-1.61298 -2.63626,-2.4698 -0.20254,-0.82271 -0.67038,-3.24925 0.0802,-5.7673 l 0.0183,-0.0582 -0.0159,-0.0574 -1.33044,-5.18333 v -8.01248 l 1.34553,-5.23907 -0.0183,-0.0574 c -0.74981,-2.51722 -0.28515,-4.93627 -0.081,-5.76314 0.70295,-0.86098 1.58223,-1.74941 2.65215,-2.48228 3.86343,-1.9582 9.52435,-0.0765 11.15742,0.54238 2.63467,1.79931 5.7062,2.77259 8.92149,2.77259 3.21688,0 6.28921,-0.97328 8.92387,-2.77343 1.63704,-0.61973 7.30988,-2.50473 11.17093,-0.53405 1.06276,0.72954 1.93648,1.61298 2.63626,2.4698 0.20254,0.82271 0.67038,3.24925 -0.0802,5.76813 l -0.0183,0.0574 0.0159,0.0574 1.33123,5.18333 v 8.01248 l -1.34632,5.23906 z m -7.11686,12.79154 h 2.51552 l -0.57268,0.79859 h -6.41788 c -0.18666,0.007 -0.36538,0.03 -0.55521,0.03 v -0.03 h -3.93255 c 0.27721,-0.25039 0.53853,-0.51908 0.78794,-0.79859 h 6.63631 c 4.92621,-1.14131 8.4203,-4.41136 9.98346,-6.15245 v -1.52563 c -1.57587,2.27348 -4.53223,5.38131 -8.95405,5.38131 h -9.86432 c -0.10723,0.20131 -0.30501,0.34356 -0.54012,0.34356 -0.34472,0 -0.6259,-0.29448 -0.6259,-0.65551 0,-0.36186 0.28118,-0.6555 0.6259,-0.6555 0.23511,0 0.43289,0.14225 0.54012,0.34356 h 5.44885 c -2.91347,-2.77925 -6.64585,-4.31737 -10.60857,-4.31737 -3.96273,0 -7.69431,1.53812 -10.60857,4.31737 h 5.44805 c 0.10723,-0.20131 0.30501,-0.34356 0.54012,-0.34356 0.34472,0 0.6259,0.29364 0.6259,0.6555 0,0.36103 -0.28118,0.65551 -0.6259,0.65551 -0.23511,0 -0.43289,-0.14225 -0.54012,-0.34356 h -9.86431 c -4.42262,0 -7.37977,-3.1095 -8.95406,-5.38214 v 1.52563 c 1.56078,1.74109 5.05011,5.00947 9.97552,6.15162 h 6.64266 c 0.24941,0.28117 0.51073,0.54903 0.78715,0.80025 h -3.93016 v 0.03 c -0.18904,0 -0.36855,-0.0233 -0.55521,-0.03 h -6.41868 l -0.57348,-0.80025 h 2.51394 c -3.9945,-1.31933 -6.90637,-3.91308 -8.44174,-5.55517 v 2.10544 c 0,0 2.89599,1.80514 3.63468,3.44973 h 1.54887 l 1.01987,1.42415 h 5.79278 c 2.24308,0.29697 5.07235,0.846 6.41073,1.81678 0,0 0.95156,0.60477 0.95156,-0.38349 0,-0.60393 -2.17557,-1.12135 -3.86344,-1.43329 h 2.16286 c 0.081,0.0824 0.18904,0.13393 0.31057,0.13393 0.0945,0 0.17633,-0.0374 0.24941,-0.0907 1.63306,1.20204 3.61641,1.91329 5.75941,1.91329 2.143,0 4.12714,-0.71125 5.761,-1.91329 0.0723,0.0532 0.15489,0.0907 0.24941,0.0907 0.12153,0 0.23034,-0.0516 0.31057,-0.13393 h 2.16286 c -1.68787,0.31194 -3.86344,0.82936 -3.86344,1.43329 0,0.98826 0.95156,0.38349 0.95156,0.38349 1.33838,-0.97078 4.16765,-1.51981 6.41073,-1.81678 h 5.79278 l 1.01828,-1.42249 h 1.55046 c 0.73869,-1.64625 3.63547,-3.44973 3.63547,-3.44973 v -2.10627 c -1.53695,1.64293 -4.45042,4.23667 -8.44491,5.556 m -9.3933,0.64802 c -0.0413,-0.0141 -0.0842,-0.0275 -0.13106,-0.0275 -0.24623,0 -0.44639,0.20963 -0.44639,0.46751 0,0.004 0.002,0.007 0.002,0.0116 -1.57588,1.1696 -3.4933,1.86337 -5.5664,1.86337 -2.07231,0 -3.98973,-0.69377 -5.56481,-1.86253 0,-0.004 0.002,-0.008 0.002,-0.0125 0,-0.25788 -0.20016,-0.46751 -0.44639,-0.46751 -0.0469,0 -0.0898,0.0133 -0.13185,0.0275 -0.2375,-0.20463 -0.46466,-0.42175 -0.68309,-0.64885 h 0.7236 c 1.62115,1.51815 3.75382,2.449 6.10016,2.449 2.34634,0 4.47981,-0.93085 6.10096,-2.449 h 0.72281 c -0.21764,0.2271 -0.44481,0.44422 -0.6823,0.64885 m 16.90571,-13.5061 0.9325,-3.63025 v 7.70886 c -0.19619,0.31611 -0.42335,0.66383 -0.68944,1.02985 0.19778,-1.1696 0.34631,-3.08787 -0.24306,-5.10846 m -8.02155,9.93742 h -3.53063 c -0.46863,-0.48415 -0.96666,-0.92503 -1.47897,-1.3418 1.84673,0.59146 4.8976,1.32433 7.72211,0.88427 -0.83242,0.27868 -1.72997,0.45753 -2.71251,0.45753 m -8e-4,-38.34965 c 0.98254,0 1.88089,0.17719 2.71331,0.4567 -2.82292,-0.44172 -5.873,0.29115 -7.72053,0.88427 0.51232,-0.41594 1.00955,-0.85765 1.47898,-1.34097 z m 8.26382,4.8248 c 0.26609,0.36852 0.49484,0.71624 0.69103,1.03401 v 7.71135 l -0.93329,-3.63357 c 0.58937,-2.02309 0.44083,-3.94219 0.24226,-5.11179 m 0.69103,-0.0674 v -1.52563 c -1.56157,-1.74026 -5.0509,-5.00864 -9.97631,-6.15079 h -6.64266 c -0.24941,-0.282 -0.51073,-0.54903 -0.78715,-0.80108 h 3.93016 v -0.0291 c 0.18904,0 0.36935,0.0225 0.55521,0.0291 h 6.41868 l 0.57348,0.80108 h -2.51314 c 3.9937,1.31933 6.90557,3.91225 8.44173,5.55517 v -2.10627 c 0,0 -2.89678,-1.80514 -3.63547,-3.4489 h -1.54887 l -1.01987,-1.42498 h -5.79278 c -2.24308,-0.29697 -5.07235,-0.846 -6.41073,-1.81678 0,0 -0.95156,-0.60394 -0.95156,0.38348 0,0.60477 2.17557,1.12219 3.86344,1.4333 h -2.16286 c -0.0802,-0.0824 -0.18904,-0.1331 -0.31057,-0.1331 -0.0945,0 -0.17633,0.0374 -0.24941,0.0899 -1.63306,-1.20121 -3.61641,-1.91329 -5.75941,-1.91329 -2.143,0 -4.12714,0.71208 -5.761,1.91329 -0.0723,-0.0524 -0.15489,-0.0899 -0.24941,-0.0899 -0.12153,0 -0.22955,0.0507 -0.31057,0.1331 h -2.16286 c 1.68787,-0.31111 3.86344,-0.82853 3.86344,-1.4333 0,-0.98742 -0.95156,-0.38348 -0.95156,-0.38348 -1.33838,0.97078 -4.16765,1.51981 -6.41073,1.81678 h -5.79278 l -1.01828,1.42332 h -1.55046 c -0.73869,1.64542 -3.63468,3.4489 -3.63468,3.4489 v 2.1071 c 1.53616,-1.64376 4.44963,-4.23667 8.44412,-5.556 h -2.51476 l 0.57268,-0.79942 h 6.41788 c 0.18746,-0.007 0.36538,-0.0291 0.55521,-0.0291 v 0.0291 h 3.93254 c -0.2772,0.25122 -0.53853,0.51908 -0.78793,0.79942 h -6.63631 c -4.92621,1.14048 -8.4203,4.41136 -9.98267,6.15162 v 1.52563 c 1.57508,-2.27348 4.53144,-5.38048 8.95326,-5.38048 h 9.86432 c 0.10723,-0.20214 0.30501,-0.34439 0.54012,-0.34439 0.34472,0 0.6259,0.29448 0.6259,0.65634 0,0.36102 -0.28118,0.6555 -0.6259,0.6555 -0.23511,0 -0.43289,-0.14225 -0.54012,-0.34356 h -5.44805 c 2.91346,2.77842 6.64505,4.31653 10.60777,4.31653 3.96272,0 7.6951,-1.53811 10.60936,-4.31653 h -5.44884 c -0.10723,0.20131 -0.30501,0.34356 -0.54012,0.34356 -0.34472,0 -0.6259,-0.29448 -0.6259,-0.6555 0,-0.36186 0.28118,-0.65634 0.6259,-0.65634 0.23511,0 0.43289,0.14225 0.54012,0.34439 h 9.86431 c 4.42262,0 7.37977,3.10867 8.95485,5.38131 m -17.15433,-7.67725 h -0.7236 c -1.62115,-1.51815 -3.75382,-2.44983 -6.10016,-2.44983 -2.34634,0 -4.47981,0.93168 -6.10096,2.44983 h -0.72281 c 0.21764,-0.22793 0.44481,-0.44421 0.6823,-0.64885 0.0413,0.0133 0.0842,0.0274 0.13106,0.0274 0.24623,0 0.44639,-0.20963 0.44639,-0.46834 0,0 -0.002,-0.007 -0.002,-0.0108 1.57587,-1.17043 3.4933,-1.86421 5.5664,-1.86421 2.07231,0 3.98973,0.69378 5.56481,1.86337 0,0.003 -0.002,0.007 -0.002,0.007 0,0.26287 0.20016,0.4725 0.44639,0.4725 0.0469,0 0.0898,-0.0141 0.13185,-0.0274 0.2375,0.20464 0.46466,0.42092 0.68309,0.64885 m -29.87095,12.85642 -0.9317,3.63025 v -7.70803 c 0.1954,-0.31611 0.42256,-0.66383 0.68865,-1.03068 -0.19778,1.17043 -0.34631,3.08787 0.24305,5.10846 m 11.55219,-9.93659 c 0.46863,0.48415 0.96666,0.92503 1.47897,1.3418 -1.84673,-0.59229 -4.8976,-1.32516 -7.72211,-0.8851 0.83242,-0.27868 1.72997,-0.4567 2.71251,-0.4567 z"
         style="fill:#dedfdf;fill-opacity:1;fill-rule:nonzero;stroke:none;stroke-width:0.81286"
         id="path20"
         sodipodi:nodetypes="csccccccccccccscccccccccccccscccccccccccccccccccccscsssccsccssscsccccccccccccccccccsccscscsccscccccccccsscscsscccscccccccccccccscccscccccccccccccccccccccccsccscscsccsccccccccccccccccccscsssccsccssscscccscccsccsccsccccccccccsc" />
    </g>
  </g>
  <g
     inkscape:label="Layer 1"
     inkscape:groupmode="layer"
     id="layer1"
     style="display:none">
    <path
       d="M 15.882161,3.8486562 V 14.825949 l -1.096275,1.180115 H 3.7505213 L 2.6516314,14.825949 V 3.8486562 L 3.7505213,2.6657372 H 14.785886 Z"
       style="fill:#ffffff;fill-opacity:1;fill-rule:nonzero;stroke:none;stroke-width:0.270816"
       id="path260" />
    <g
       id="g274"
       transform="matrix(0.26101905,0,0,-0.26101905,14.794365,2.4569236)">
      <path
         d="m 0,0 h -42.215 l -5.012,-5.013 v -42.269149 l 5.012,-5.012 H 0 l 5.013,5.012 V -5.013 Z M 3.638,-5.583 V -9.458 C 3.23,-8.236 2.651,-6.933 1.839,-5.702 v 0.071 H 1.793 c -1.155,1.727 -2.782,3.294 -5.07,4.256 h 2.707 z m -8.852,-45.336149 h -31.812 c -2.614,0.632 -4.706,2.072 -6.278,4.279 V -5.677 c 1.367,1.915 3.37,3.579 6.303,4.302 h 31.812 c 2.614,-0.632 4.706,-2.071 6.278,-4.278 v -40.964149 c -1.366,-1.915 -3.37,-3.579 -6.303,-4.302 M -45.852,-11.729 c 0.302,1.417 0.842,3.181 1.798,4.873 v -38.597149 c -0.167,0.297 -0.343,0.579 -0.495,0.899 -0.657,1.384 -1.057,2.775 -1.303,3.939 z m 47.691,4.888 c 0.167,-0.297 0.344,-0.579 0.495,-0.898 0.657,-1.385 1.058,-2.776 1.304,-3.94 v -28.885149 c -0.303,-1.418 -0.843,-3.182 -1.799,-4.873 z m -43.483,5.466 h 2.707 c -2.289,-0.962 -3.915,-2.529 -5.071,-4.256 h -0.046 v -0.071 c -0.812,-1.231 -1.391,-2.534 -1.798,-3.756 v 3.875 z m -4.208,-45.337149 v 3.876 c 0.407,-1.221 0.986,-2.525 1.798,-3.755 v -0.072 h 0.046 c 1.156,-1.726 2.782,-3.294 5.071,-4.256 h -2.707 z m 45.282,-4.207 h -2.707 c 2.288,0.962 3.915,2.53 5.07,4.256 h 0.046 v 0.072 c 0.812,1.23 1.391,2.534 1.799,3.755 v -3.876 z"
         style="fill:#000000;fill-opacity:1;fill-rule:nonzero;stroke:none"
         id="path276"
         sodipodi:nodetypes="cccccccccccccccccccccccccccccccccccccccccccccccccccccccccccccc" />
    </g>
  </g>
  <g
     inkscape:groupmode="layer"
     id="layer4"
     inkscape:label="Layer 4">
    <path
       style="fill:#ffffff;fill-opacity:1;stroke:none;stroke-width:0.264583px;stroke-linecap:butt;stroke-linejoin:miter;stroke-opacity:1"
       d="M 10.20131,0.95836839 2.8926366,0.8428034 2.8280846,1.1836009 2.1629228,1.9349425 1.369541,2.2224563 1.2821841,27.952155 0.98078953,28.43467 l -0.5445004,2.436876 -0.0409088,1.833317 0.10758649,0.907304 0.90248458,0.310188 -0.022653,1.059504 0.9292136,0.4397 0.591756,0.779524 0.7116482,0.303593 30.4252738,-0.148587 0.249499,-0.642376 0.410962,-0.204991 0.903315,-0.507377 0.100333,-1.177443 0.806144,-0.32067 0.13299,-0.856415 L 36.536331,31.406475 36.241528,29.640523 35.808629,27.331621 35.787118,6.2688951 35.700311,2.2452966 35.09308,1.9422562 34.361278,1.4629191 34.064775,0.89049727 Z"
       id="path3174"
       sodipodi:nodetypes="ccccccccccccccccccccccccccccccc" />
  </g>
  <g
     inkscape:groupmode="layer"
     id="layer3"
     inkscape:label="Layer 3"
     style="display:inline">
    <g
       id="g833"
       transform="matrix(0.35277777,0,0,-0.35277777,64.606561,8.6230805)">
      <path
         d="m -81.03169,-52.685946 v 71.161178 l -0.439,0.137 c -1.116,0.349 -3.844267,1.6323 -4.012,3.323 v 0.625 l -90.06431,0 v -0.625 c 0,-1.699 -2.897,-2.974 -4.014,-3.323 l -0.439,-0.137 v -70.630178 c -0.637,-2.549 -3.125,-13.056 -2.34,-18.666 l 0.043,-0.308 0.296,-0.097 c 0.027,-0.009 0.855,-0.289 2.001,-0.793 v -3.284 l 0.439,-0.136 c 1.117,-0.347 4.014,-1.619 4.014,-3.323 v -0.625 l 90.06431,0 v 0.625 c 0,1.699 2.896,2.974 4.012,3.323 l 0.439,0.137 v 3.339 c 1.075,0.467 1.845,0.728 1.87,0.737 l 0.296,0.097 0.043,0.308 c 0.739,5.277 -1.42,14.89 -2.209,18.135 M -178.75,11.766232 c 0.164,0.342 0.446,0.905 0.844,1.601 v -66.911178 c 0,-3.393 -0.287,-7.24 -0.844,-11.466 z m 0,-80.279178 c 0.892,5.625 1.344,10.652 1.344,14.969 v 67.750178 c 1.655,2.67 4.601,6.385 8.483,7.104 l 76.81331,0 c 3.88,-0.719 6.828,-4.437 8.484,-7.107 v -67.747178 c 0,-4.317 0.452,-9.344 1.344,-14.969 v -2.912 c -2.704,-1.276 -6.45,-3.577 -7.099,-6.712 l -82.40131,0 c -0.639,3.085 -4.275,5.362 -6.968,6.65 z m 95.62431,81.877178 c 0.398,-0.695 0.68,-1.257 0.844,-1.599 v -76.775178 c -0.557,4.226 -0.844,8.073 -0.844,11.466 z m 0.844,4.208 v -3.644 c -1.271,2.23 -3.622,5.633 -6.886,7.382 h 2.506 c 0.483,-2.086 3.278,-3.325 4.38,-3.738 m -92.08631,3.738 h 2.504 c -3.264,-1.749 -5.615,-5.152 -6.886,-7.382 v 3.644 c 1.103,0.413 3.899,1.652 4.382,3.738 m -7.02,-91.690178 c -0.422,3.693 0.538,9.537 1.388,13.673 v -14.216 c -0.602,0.254 -1.093,0.437 -1.388,0.543 m 2.638,-4.019 v 1.79 c 2.392,-1.195 5.313,-3.109 5.943,-5.528 h -1.561 c -0.483,2.086 -3.279,3.325 -4.382,3.738 m 96.46831,0 c -1.102,-0.413 -3.897,-1.652 -4.38,-3.738 h -1.694 c 0.641,2.46 3.66,4.402 6.074,5.593 z m 2.507,4.019 c -0.273,-0.098 -0.719,-0.266 -1.257,-0.489 v 13.516 c 0.813,-4.081 1.657,-9.521 1.257,-13.027"
         style="fill:#231f20;fill-opacity:1;fill-rule:nonzero;stroke:none"
         id="path835"
         sodipodi:nodetypes="cccsccscccccccccsccscccccccccscccsccccscccccccccsccccccccccccccccccccccccccccc" />
    </g>
  </g>
</svg>
