<?xml version="1.0" encoding="UTF-8" standalone="no"?>
<!-- Created with Inkscape (http://www.inkscape.org/) -->

<svg
   width="124.81744mm"
   height="122.21874mm"
   viewBox="0 0 124.81744 122.21874"
   version="1.1"
   id="svg42763"
   inkscape:export-filename="/home/lukekaalim/Pictures/chop shop.png"
   inkscape:export-xdpi="900"
   inkscape:export-ydpi="900"
   inkscape:version="1.1.2 (0a00cf5339, 2022-02-04)"
   sodipodi:docname="chop shop.svg"
   xmlns:inkscape="http://www.inkscape.org/namespaces/inkscape"
   xmlns:sodipodi="http://sodipodi.sourceforge.net/DTD/sodipodi-0.dtd"
   xmlns="http://www.w3.org/2000/svg"
   xmlns:svg="http://www.w3.org/2000/svg">
  <sodipodi:namedview
     id="namedview42765"
     pagecolor="#ffffff"
     bordercolor="#666666"
     borderopacity="1.0"
     inkscape:pageshadow="2"
     inkscape:pageopacity="1"
     inkscape:pagecheckerboard="0"
     inkscape:document-units="mm"
     showgrid="false"
     fit-margin-top="40"
     fit-margin-left="40"
     fit-margin-right="40"
     fit-margin-bottom="40"
     inkscape:snap-global="false"
     inkscape:zoom="2.1215981"
     inkscape:cx="211.63292"
     inkscape:cy="232.60767"
     inkscape:window-width="1920"
     inkscape:window-height="1019"
     inkscape:window-x="1920"
     inkscape:window-y="30"
     inkscape:window-maximized="1"
     inkscape:current-layer="layer1" />
  <defs
     id="defs42760">
    <rect
       x="15.691142"
       y="9.8509339"
       width="110.93673"
       height="41.186949"
       id="rect46701" />
    <rect
       x="15.691142"
       y="9.850934"
       width="110.93673"
       height="41.186951"
       id="rect46701-6" />
    <rect
       x="15.691142"
       y="9.850934"
       width="110.93673"
       height="41.186951"
       id="rect46701-5" />
    <rect
       x="15.691142"
       y="9.850934"
       width="110.93673"
       height="41.186951"
       id="rect46701-5-5" />
    <rect
       x="15.691142"
       y="9.850934"
       width="110.93673"
       height="41.186951"
       id="rect46701-5-2" />
    <rect
       x="15.691142"
       y="9.850934"
       width="110.93673"
       height="41.186951"
       id="rect46701-5-1" />
    <rect
       x="15.691142"
       y="9.850934"
       width="110.93673"
       height="41.186951"
       id="rect46701-5-1-7" />
    <rect
       x="15.691142"
       y="9.850934"
       width="110.93673"
       height="41.186951"
       id="rect46701-5-1-9" />
  </defs>
  <g
     inkscape:label="Layer 1"
     inkscape:groupmode="layer"
     id="layer1"
     transform="translate(-37.061561,-51.059256)">
    <path
       style="display:inline;fill:#f8f6c3;fill-opacity:0.811765;stroke:#000000;stroke-width:0.592324px;stroke-linecap:butt;stroke-linejoin:miter;stroke-opacity:1"
       d="m 67.510867,128.50253 2.401893,3.56105 3.724367,1.00755 6.512798,-0.26658 3.847865,0.7379 2.430603,1.63618 1.260356,0.37926 0.932988,1.91035 1.070489,1.55445 1.079778,1.7592 2.110192,0.29056 1.356542,0.95984 h 2.156097 l 1.459086,0.39621 2.196509,0.004 2.16974,1.19504 2.42567,1.50912 2.73912,3.10846 1.83635,1.71152 -4.39918,-29.42313 z"
       id="path1330" />
    <path
       style="display:inline;fill:#f8f6c3;fill-opacity:0.811765;stroke:#000000;stroke-width:0.592324px;stroke-linecap:butt;stroke-linejoin:miter;stroke-opacity:1"
       d="m 71.102492,73.176416 0.972752,-0.189036 2.002092,3.575999 1.594306,1.937749 3.883038,2.729355 2.857201,1.277418 2.358241,0.539123 1.30719,0.671731 2.037732,-0.488728 1.277495,-0.190088 2.252167,0.397095 1.23293,0.247733 1.271182,-0.541953 2.148302,-0.08182 2.331148,1.30886 1.935082,1.309373 2.74945,-0.216259 2.53742,-0.787163 3.27646,-1.169113 2.692,-0.623812 1.43467,0.04934 2.28895,-0.12033 0.98382,-1.121798 2.29532,0.493364 2.41785,1.134568 2.72169,0.219415 1.97977,1.219211 1.87815,0.445664 1.30778,-0.0441 0.72073,0.522895 h 1.37367 l 1.38932,0.440152 3.2198,0.09917 1.14852,0.751578 -1.58952,2.593677 -61.501787,5.401418 z"
       id="path1728" />
    <path
       style="display:inline;fill:#abc8a1;fill-opacity:1;stroke:#000000;stroke-width:0.593255;stroke-linecap:butt;stroke-linejoin:miter;stroke-miterlimit:4;stroke-dasharray:none;stroke-opacity:1"
       d="m 52.420568,80.266501 -0.947559,4.328636 -1.861183,4.847218 0.862927,4.170174 1.835832,2.765721 0.05917,4.89764 -0.499104,6.68382 1.607392,6.12924 2.115025,5.32978 3.460141,4.23499 3.840876,3.06103 6.725721,2.4416 5.558249,-0.15134 6.937248,-2.50643 5.321371,-1.20279 5.507499,-1.1884 5.31294,-0.50416 4.060807,0.48974 3.0456,3.34192 -0.0508,5.63228 0.78677,5.43061 1.64127,4.49427 1.4805,6.96473 3.73933,4.52308 3.74782,4.12699 6.7596,0.51858 5.14368,-1.98786 3.81547,-2.98899 2.54653,-3.31311 2.34341,-4.11976 3.40096,-5.24336 2.5549,-2.1103 0.95599,-6.28049 0.19455,-2.58564 0.21155,-3.80287 1.14213,-3.68043 0.99826,-3.74525 0.76143,-5.53862 0.58374,-2.9962 1.03213,-3.48596 0.18604,-3.63002 -0.99831,-5.192925 -1.21826,-3.385127 -1.43819,-2.470436 -1.76817,-3.838868 -3.07943,-1.397266 -3.85781,-0.360119 -4.59943,0.781219 -6.31118,-1.145165 -6.80186,0.446555 -7.83402,1.195581 -6.09972,1.35406 -6.031998,0.194543 -5.659798,2.045485 -6.480357,-0.698634 -7.546382,-0.669821 -3.485539,-3.918096 -3.180997,-5.545853 -1.683535,-5.19292 -0.363776,-3.680426 -2.301152,-1.64215 -0.05075,-3.097027 -3.121765,-2.167922 -5.262147,1.310839 -2.851054,2.347981 2.63953,2.628874 1.362079,1.397268 0.07614,3.197855 -1.370514,1.339649 -3.104847,1.879824 -2.478802,-0.07202 z"
       id="path32408" />
    <rect
       style="display:inline;fill:#ff3c3c;fill-opacity:1;stroke:#000000;stroke-width:0.592324;stroke-miterlimit:4;stroke-dasharray:none;stroke-opacity:1"
       id="rect991"
       width="11.965553"
       height="4.5692272"
       x="92.068222"
       y="44.578003"
       transform="rotate(29.861876)" />
    <rect
       style="display:inline;fill:#989898;fill-opacity:0.623529;stroke:#000000;stroke-width:0.592324;stroke-miterlimit:4;stroke-dasharray:none;stroke-opacity:1"
       id="rect4655"
       width="3.2766271"
       height="2.7561436"
       x="81.119591"
       y="127.73931" />
    <rect
       style="display:inline;fill:#989898;fill-opacity:0.623529;stroke:#000000;stroke-width:0.592324;stroke-miterlimit:4;stroke-dasharray:none;stroke-opacity:1"
       id="rect4679"
       width="4.4224868"
       height="1.6990954"
       x="106.92682"
       y="110.94778"
       transform="rotate(8.2756754)" />
    <rect
       style="display:inline;fill:#989898;fill-opacity:0.623529;stroke:#000000;stroke-width:0.592324;stroke-miterlimit:4;stroke-dasharray:none;stroke-opacity:1"
       id="rect4681"
       width="2.0221364"
       height="1.7653496"
       x="113.50401"
       y="110.14253"
       transform="rotate(8.2756754)" />
    <rect
       style="display:inline;fill:#989898;fill-opacity:0.623529;stroke:#000000;stroke-width:0.592324;stroke-miterlimit:4;stroke-dasharray:none;stroke-opacity:1"
       id="rect4683"
       width="2.1569731"
       height="2.1960597"
       x="119.48461"
       y="110.83189"
       transform="rotate(8.2756754)" />
    <rect
       style="display:inline;fill:#989898;fill-opacity:0.623529;stroke:#000000;stroke-width:0.592324;stroke-miterlimit:4;stroke-dasharray:none;stroke-opacity:1"
       id="rect4685"
       width="1.8684976"
       height="4.0981531"
       x="48.481007"
       y="163.20909"
       transform="rotate(-19.957677)" />
    <rect
       style="display:inline;fill:#989898;fill-opacity:0.623529;stroke:#000000;stroke-width:0.592324;stroke-miterlimit:4;stroke-dasharray:none;stroke-opacity:1"
       id="rect4687"
       width="1.7684453"
       height="1.8090298"
       x="49.395603"
       y="168.83755"
       transform="rotate(-19.957677)" />
    <rect
       style="display:inline;fill:#989898;fill-opacity:0.623529;stroke:#000000;stroke-width:0.592324;stroke-miterlimit:4;stroke-dasharray:none;stroke-opacity:1"
       id="rect4689"
       width="1.4127079"
       height="1.3733239"
       x="145.71915"
       y="73.136162"
       transform="rotate(27.550964)" />
    <rect
       style="display:inline;fill:#989898;fill-opacity:0.623529;stroke:#000000;stroke-width:0.592324;stroke-miterlimit:4;stroke-dasharray:none;stroke-opacity:1"
       id="rect4691"
       width="1.8607564"
       height="2.8056488"
       x="144.48174"
       y="75.864746"
       transform="rotate(27.550964)" />
    <rect
       style="display:inline;fill:#999998;fill-opacity:1;stroke:#000000;stroke-width:0.592324;stroke-miterlimit:4;stroke-dasharray:none;stroke-opacity:1"
       id="rect4693"
       width="1.5903779"
       height="1.9734672"
       x="68.560081"
       y="76.486938" />
    <rect
       style="display:inline;fill:#999998;fill-opacity:1;stroke:#000000;stroke-width:0.592324;stroke-miterlimit:4;stroke-dasharray:none;stroke-opacity:1"
       id="rect4695"
       width="1.9171503"
       height="4.2386842"
       x="27.763285"
       y="104.07256"
       transform="rotate(-25.255575)" />
    <rect
       style="display:inline;fill:#999998;fill-opacity:1;stroke:#000000;stroke-width:0.592324;stroke-miterlimit:4;stroke-dasharray:none;stroke-opacity:1"
       id="rect4697"
       width="2.1951253"
       height="2.2554021"
       x="73.58606"
       y="87.43222" />
    <rect
       style="display:inline;fill:#999998;fill-opacity:1;stroke:#000000;stroke-width:0.592324;stroke-miterlimit:4;stroke-dasharray:none;stroke-opacity:1"
       id="rect4699"
       width="2.3150458"
       height="1.7573214"
       x="78.94017"
       y="91.750381" />
    <rect
       style="display:inline;fill:#999998;fill-opacity:1;stroke:#000000;stroke-width:0.592324;stroke-miterlimit:4;stroke-dasharray:none;stroke-opacity:1"
       id="rect4701"
       width="1.3362832"
       height="1.5908027"
       x="118.09853"
       y="-12.573703"
       transform="rotate(56.032363)" />
    <rect
       style="display:inline;fill:#999998;fill-opacity:1;stroke:#000000;stroke-width:0.592324;stroke-miterlimit:4;stroke-dasharray:none;stroke-opacity:1"
       id="rect4703"
       width="2.2642608"
       height="2.3283567"
       x="42.747265"
       y="120.05102"
       transform="rotate(-23.520744)" />
    <rect
       style="display:inline;fill:#999998;fill-opacity:1;stroke:#000000;stroke-width:0.592324;stroke-miterlimit:4;stroke-dasharray:none;stroke-opacity:1"
       id="rect4705"
       width="1.4134189"
       height="1.7591196"
       x="101.39913"
       y="91.039032" />
    <rect
       style="display:inline;fill:#999998;fill-opacity:1;stroke:#000000;stroke-width:0.592324;stroke-miterlimit:4;stroke-dasharray:none;stroke-opacity:1"
       id="rect4707"
       width="2.2159696"
       height="1.6308012"
       x="98.701622"
       y="102.86018"
       transform="rotate(-6.6793211)" />
    <rect
       style="display:inline;fill:#999998;fill-opacity:1;stroke:#000000;stroke-width:0.592324;stroke-miterlimit:4;stroke-dasharray:none;stroke-opacity:1"
       id="rect4709"
       width="1.5975227"
       height="2.1835043"
       x="104.24656"
       y="102.34899"
       transform="rotate(-6.6793211)" />
    <rect
       style="display:inline;fill:#999998;fill-opacity:1;stroke:#000000;stroke-width:0.592324;stroke-miterlimit:4;stroke-dasharray:none;stroke-opacity:1"
       id="rect4711"
       width="2.4629314"
       height="2.3237691"
       x="109.96049"
       y="102.36671"
       transform="rotate(-6.6793211)" />
    <rect
       style="display:inline;fill:#999998;fill-opacity:1;stroke:#000000;stroke-width:0.592324;stroke-miterlimit:4;stroke-dasharray:none;stroke-opacity:1"
       id="rect4713"
       width="2.0075033"
       height="2.1119368"
       x="116.13796"
       y="103.48214"
       transform="rotate(-6.6793211)" />
    <rect
       style="display:inline;fill:#999998;fill-opacity:1;stroke:#000000;stroke-width:0.592324;stroke-miterlimit:4;stroke-dasharray:none;stroke-opacity:1"
       id="rect4715"
       width="1.9410307"
       height="2.0827081"
       x="113.01272"
       y="106.1025"
       transform="rotate(-6.6793211)" />
    <rect
       style="display:inline;fill:#bb00f1;fill-opacity:1;stroke:#000000;stroke-width:0.592324;stroke-miterlimit:4;stroke-dasharray:none;stroke-opacity:1"
       id="rect4717"
       width="13.954663"
       height="6.5266309"
       x="103.28649"
       y="76.684669"
       transform="rotate(16.749071)" />
    <rect
       style="display:inline;fill:#740096;fill-opacity:1;stroke:#000000;stroke-width:0.592324;stroke-miterlimit:4;stroke-dasharray:none;stroke-opacity:1"
       id="rect4719"
       width="2.205905"
       height="1.9981669"
       x="117.93384"
       y="74.032593"
       transform="rotate(16.749071)" />
    <rect
       style="display:inline;fill:#740096;fill-opacity:1;stroke:#000000;stroke-width:0.592324;stroke-miterlimit:4;stroke-dasharray:none;stroke-opacity:1"
       id="rect4721"
       width="2.2866888"
       height="1.9069656"
       x="119.00941"
       y="81.40551"
       transform="rotate(16.749071)" />
    <rect
       style="display:inline;fill:#c5008e;fill-opacity:1;stroke:#000000;stroke-width:0.592324;stroke-miterlimit:4;stroke-dasharray:none;stroke-opacity:1"
       id="rect4723"
       width="5.2989502"
       height="13.908255"
       x="51.997231"
       y="139.60251"
       transform="rotate(-25.050109)" />
    <rect
       style="display:inline;fill:#96006c;fill-opacity:1;stroke:#000000;stroke-width:0.592324;stroke-miterlimit:4;stroke-dasharray:none;stroke-opacity:1"
       id="rect4725"
       width="1.5240901"
       height="2.29248"
       x="58.952747"
       y="142.97211"
       transform="rotate(-25.050109)" />
    <rect
       style="display:inline;fill:#96006c;fill-opacity:1;stroke:#000000;stroke-width:0.592324;stroke-miterlimit:4;stroke-dasharray:none;stroke-opacity:1"
       id="rect4727"
       width="2.2949529"
       height="2.5675111"
       x="59.508682"
       y="147.65059"
       transform="rotate(-25.050109)" />
    <rect
       style="display:inline;fill:#965500;fill-opacity:1;stroke:#000000;stroke-width:0.592324;stroke-miterlimit:4;stroke-dasharray:none;stroke-opacity:1"
       id="rect4729"
       width="9.5745983"
       height="9.516778"
       x="38.410122"
       y="171.47562"
       transform="rotate(-27.61152)" />
    <rect
       style="display:inline;fill:#965500;fill-opacity:1;stroke:#000000;stroke-width:0.592324;stroke-miterlimit:4;stroke-dasharray:none;stroke-opacity:1"
       id="rect4731"
       width="3.7128987"
       height="3.7529688"
       x="47.984715"
       y="171.47562"
       transform="rotate(-27.61152)" />
    <rect
       style="display:inline;fill:#968a00;fill-opacity:1;stroke:#000000;stroke-width:0.592324;stroke-miterlimit:4;stroke-dasharray:none;stroke-opacity:1"
       id="rect4733"
       width="2.4440477"
       height="2.5089083"
       x="87.377129"
       y="150.57007"
       transform="rotate(-15.637742)" />
    <rect
       style="display:inline;fill:#968a00;fill-opacity:1;stroke:#000000;stroke-width:0.592324;stroke-miterlimit:4;stroke-dasharray:none;stroke-opacity:1"
       id="rect4735"
       width="2.1798346"
       height="2.4930849"
       x="91.774315"
       y="146.26936"
       transform="rotate(-15.637742)" />
    <rect
       style="display:inline;fill:#999998;fill-opacity:1;stroke:#000000;stroke-width:0.592324;stroke-miterlimit:4;stroke-dasharray:none;stroke-opacity:1"
       id="rect4737"
       width="2.5345609"
       height="2.4485416"
       x="166.47543"
       y="11.087759"
       transform="rotate(31.617727)" />
    <rect
       style="display:inline;fill:#989898;fill-opacity:0.623529;stroke:#000000;stroke-width:0.592324;stroke-miterlimit:4;stroke-dasharray:none;stroke-opacity:1"
       id="rect4739"
       width="1.9414363"
       height="2.4382246"
       x="98.950035"
       y="78.367615"
       transform="rotate(23.541482)" />
    <rect
       style="display:inline;fill:#989898;fill-opacity:0.623529;stroke:#000000;stroke-width:0.592324;stroke-miterlimit:4;stroke-dasharray:none;stroke-opacity:1"
       id="rect4741"
       width="2.4397027"
       height="2.5853469"
       x="103.71152"
       y="85.476059"
       transform="rotate(23.541482)" />
    <text
       xml:space="preserve"
       transform="matrix(0.26458333,0,0,0.26458333,34.349915,69.017867)"
       id="text46699"
       style="font-style:normal;font-variant:normal;font-weight:normal;font-stretch:normal;font-size:10.6667px;line-height:1.25;font-family:Cr;-inkscape-font-specification:Cr;white-space:pre;shape-inside:url(#rect46701)"><tspan
         x="15.691406"
         y="19.289092"
         id="tspan91893"><tspan
           style="font-family:'Crimson Text';-inkscape-font-specification:'Crimson Text'"
           id="tspan91891">Registry Office</tspan></tspan></text>
    <text
       xml:space="preserve"
       transform="matrix(0.26458333,0,0,0.26458333,62.467539,132.86525)"
       id="text46699-3"
       style="font-style:normal;font-variant:normal;font-weight:normal;font-stretch:normal;font-size:10.6667px;line-height:1.25;font-family:Cr;-inkscape-font-specification:Cr;white-space:pre;shape-inside:url(#rect46701-5)"><tspan
         x="15.691406"
         y="19.289092"
         id="tspan91897"><tspan
           style="font-family:'Crimson Text';-inkscape-font-specification:'Crimson Text'"
           id="tspan91895">South Dry Docks</tspan></tspan></text>
    <text
       xml:space="preserve"
       transform="matrix(0.26458333,0,0,0.26458333,79.757233,74.559433)"
       id="text46699-3-6"
       style="font-style:normal;font-variant:normal;font-weight:normal;font-stretch:normal;font-size:10.6667px;line-height:1.25;font-family:Cr;-inkscape-font-specification:Cr;white-space:pre;shape-inside:url(#rect46701-5-5)"><tspan
         x="15.691406"
         y="19.289092"
         id="tspan91901"><tspan
           style="font-family:'Crimson Text';-inkscape-font-specification:'Crimson Text'"
           id="tspan91899">North Dry Docks</tspan></tspan></text>
    <text
       xml:space="preserve"
       transform="matrix(0.26458333,0,0,0.26458333,109.63787,141.5576)"
       id="text46699-3-2"
       style="font-style:normal;font-variant:normal;font-weight:normal;font-stretch:normal;font-size:10.6667px;line-height:1.25;font-family:Cr;-inkscape-font-specification:Cr;white-space:pre;shape-inside:url(#rect46701-5-1)"><tspan
         x="15.691406"
         y="19.289092"
         id="tspan91905"><tspan
           style="font-family:'Crimson Text';-inkscape-font-specification:'Crimson Text'"
           id="tspan91903">Eternal Spring</tspan></tspan></text>
    <text
       xml:space="preserve"
       transform="matrix(0.26458333,0,0,0.26458333,113.77087,99.47117)"
       id="text46699-3-2-0"
       style="font-style:normal;font-variant:normal;font-weight:normal;font-stretch:normal;font-size:10.6667px;line-height:1.25;font-family:Cr;-inkscape-font-specification:Cr;white-space:pre;shape-inside:url(#rect46701-5-1-7)"><tspan
         x="15.691406"
         y="19.289092"
         id="tspan91909"><tspan
           style="font-family:'Crimson Text';-inkscape-font-specification:'Crimson Text'"
           id="tspan91907">Hotshop </tspan></tspan></text>
    <text
       xml:space="preserve"
       transform="matrix(0.26458333,0,0,0.26458333,82.752808,98.186177)"
       id="text46699-3-2-3"
       style="font-style:normal;font-variant:normal;font-weight:normal;font-stretch:normal;font-size:10.6667px;line-height:1.25;font-family:Cr;-inkscape-font-specification:Cr;white-space:pre;shape-inside:url(#rect46701-5-1-9)"><tspan
         x="15.691406"
         y="19.289092"
         id="tspan91913"><tspan
           style="font-family:'Crimson Text';-inkscape-font-specification:'Crimson Text'"
           id="tspan91911"> Trainyard</tspan></tspan></text>
    <path
       style="fill:none;stroke:#000000;stroke-width:0.264583px;stroke-linecap:butt;stroke-linejoin:miter;stroke-opacity:1"
       d="m 83.578811,83.739049 -0.979226,6.257473 0.752885,12.425198 -0.739976,2.65644"
       id="path91197" />
    <path
       style="fill:none;stroke:#000000;stroke-width:0.264583px;stroke-linecap:butt;stroke-linejoin:miter;stroke-opacity:1"
       d="m 84.815508,84.314817 -1.378564,5.480513 0.597286,12.55584 2.826925,1.04346 -0.52251,2.72659"
       id="path91199"
       sodipodi:nodetypes="ccccc" />
    <path
       style="fill:none;stroke:#000000;stroke-width:0.264583px;stroke-linecap:butt;stroke-linejoin:miter;stroke-opacity:1"
       d="m 89.90611,109.06063 4.696499,1.12488 7.183251,-2.70552 3.58163,-1.56895 -1.07756,-1.76154 5.00667,-2.34073 0.51642,1.06395"
       id="path91253" />
    <path
       style="fill:none;stroke:#000000;stroke-width:0.264583px;stroke-linecap:butt;stroke-linejoin:miter;stroke-opacity:1"
       d="m 110.51244,102.61804 -1.04028,-1.78394 -6.09677,2.65676 -5.622998,-3.946719 -13.097034,0.749219 -0.370155,-8.811386 0.04686,-1.577067 1.293617,-5.171205"
       id="path91255" />
    <path
       style="fill:none;stroke:#000000;stroke-width:0.264583px;stroke-linecap:butt;stroke-linejoin:miter;stroke-opacity:1"
       d="m 96.443413,84.338963 1.377453,4.453112 -4.39374,1.913109 -9.07855,-0.322479"
       id="path91257" />
    <path
       style="fill:none;stroke:#000000;stroke-width:0.264583px;stroke-linecap:butt;stroke-linejoin:miter;stroke-opacity:1"
       d="m 117.17035,83.15841 0.6805,2.917489 -7.33544,1.18087 -5.99187,1.493822 -7.011419,-0.0109"
       id="path91259" />
    <path
       style="fill:none;stroke:#000000;stroke-width:0.264583px;stroke-linecap:butt;stroke-linejoin:miter;stroke-opacity:1"
       d="m 111.23077,83.765492 0.62958,3.207432"
       id="path91261" />
    <path
       style="fill:none;stroke:#000000;stroke-width:0.264583px;stroke-linecap:butt;stroke-linejoin:miter;stroke-opacity:1"
       d="m 89.484835,84.183837 -0.811176,5.592239 4.593577,-0.172212 -0.09135,1.00389"
       id="path91263" />
    <path
       style="fill:none;stroke:#000000;stroke-width:0.264583px;stroke-linecap:butt;stroke-linejoin:miter;stroke-opacity:1"
       d="m 77.160596,80.82492 -0.590603,4.472972 3.720335,3.930698 2.428061,0.334203"
       id="path91265" />
    <path
       style="fill:none;stroke:#000000;stroke-width:0.264583px;stroke-linecap:butt;stroke-linejoin:miter;stroke-opacity:1"
       d="m 82.851728,88.461137 0.783196,0.275314"
       id="path91267" />
    <path
       style="fill:none;stroke:#000000;stroke-width:0.264583px;stroke-linecap:butt;stroke-linejoin:miter;stroke-opacity:1"
       d="m 83.667835,94.350328 0.825638,2.830792"
       id="path91269" />
    <path
       style="fill:none;stroke:#000000;stroke-width:0.264583px;stroke-linecap:butt;stroke-linejoin:miter;stroke-opacity:1"
       d="m 105.43307,103.64347 1.27382,-1.53114"
       id="path91271" />
    <path
       style="fill:none;stroke:#000000;stroke-width:0.264583px;stroke-linecap:butt;stroke-linejoin:miter;stroke-opacity:1"
       d="m 85.483948,133.07743 2.816223,-4.59578 -1.429227,-3.00364 0.350304,-8.56787 -2.100453,-1.35122 0.523925,-2.70021"
       id="path91273" />
    <path
       style="fill:none;stroke:#000000;stroke-width:0.264583px;stroke-linecap:butt;stroke-linejoin:miter;stroke-opacity:1"
       d="m 86.645715,134.16689 3.339494,-5.74121 -1.860396,-4.28914 0.234196,-4.01436 -1.160595,-3.10841"
       id="path91275" />
    <path
       style="fill:none;stroke:#000000;stroke-width:0.264583px;stroke-linecap:butt;stroke-linejoin:miter;stroke-opacity:1"
       d="m 96.10844,139.73855 3.253147,-9.07255 -9.401831,-2.3242"
       id="path91277" />
    <path
       style="fill:none;stroke:#000000;stroke-width:0.264583px;stroke-linecap:butt;stroke-linejoin:miter;stroke-opacity:1"
       d="m 97.210639,140.04985 1.833528,-5.31451 -0.424228,-2.16178"
       id="path91279" />
    <path
       style="fill:none;stroke:#000000;stroke-width:0.264583px;stroke-linecap:butt;stroke-linejoin:miter;stroke-opacity:1"
       d="m 98.246083,140.27886 1.863927,-5.47634 -0.80939,-2.16245 0.86777,-2.37804 -1.161429,-0.59956 2.039359,-5.54262 0.0672,-7.73769 6.12512,-5.73678 1.44871,-0.54875"
       id="path91281" />
    <path
       style="fill:none;stroke:#000000;stroke-width:0.264583px;stroke-linecap:butt;stroke-linejoin:miter;stroke-opacity:1"
       d="m 98.678912,108.57273 6.380358,2.78369 1.43717,-1.37482 2.07162,-0.47008"
       id="path91283" />
    <path
       style="fill:none;stroke:#000000;stroke-width:0.264583px;stroke-linecap:butt;stroke-linejoin:miter;stroke-opacity:1"
       d="m 70.958305,131.13038 0.219424,-1.09115 3.721487,-0.28105 4.655608,-1.24039 1.033264,0.0585"
       id="path91285" />
    <path
       style="fill:none;stroke:#000000;stroke-width:0.264583px;stroke-linecap:butt;stroke-linejoin:miter;stroke-opacity:1"
       d="m 84.575155,128.50544 2.698192,-0.0396 -0.286187,-2.08471"
       id="path91287" />
    <path
       style="fill:none;stroke:#000000;stroke-width:0.264583px;stroke-linecap:butt;stroke-linejoin:miter;stroke-opacity:1"
       d="m 91.440225,128.61176 0.297746,-1.35143"
       id="path91289" />
    <path
       style="fill:none;stroke:#000000;stroke-width:0.264583px;stroke-linecap:butt;stroke-linejoin:miter;stroke-opacity:1"
       d="m 97.244127,127.36663 -0.526772,2.43624 -0.700683,2.44329"
       id="path91291" />
    <path
       style="fill:none;stroke:#000000;stroke-width:0.264583px;stroke-linecap:butt;stroke-linejoin:miter;stroke-opacity:1"
       d="m 93.178005,134.09164 1.670286,-4.64376"
       id="path91293" />
    <path
       style="fill:none;stroke:#000000;stroke-width:0.264583px;stroke-linecap:butt;stroke-linejoin:miter;stroke-opacity:1"
       d="m 102.02032,136.15257 -1.15312,-4.46384 -1.672154,-0.28631"
       id="path91295"
       inkscape:export-filename="/home/lukekaalim/Pictures/chop shop.png"
       inkscape:export-xdpi="96"
       inkscape:export-ydpi="96" />
  </g>
</svg>
