<svg height='100px' width='100px'  fill="#000000" xmlns:dc="http://purl.org/dc/elements/1.1/" xmlns:cc="http://creativecommons.org/ns#" xmlns:rdf="http://www.w3.org/1999/02/22-rdf-syntax-ns#" xmlns:svg="http://www.w3.org/2000/svg" xmlns="http://www.w3.org/2000/svg" xmlns:sodipodi="http://sodipodi.sourceforge.net/DTD/sodipodi-0.dtd" xmlns:inkscape="http://www.inkscape.org/namespaces/inkscape" viewBox="0 0 8.4666667 8.4666667" version="1.1" x="0px" y="0px"><g transform="translate(0,-288.53333)"><path style="color:#000000;font-style:normal;font-variant:normal;font-weight:normal;font-stretch:normal;font-size:medium;line-height:normal;font-family:sans-serif;font-variant-ligatures:normal;font-variant-position:normal;font-variant-caps:normal;font-variant-numeric:normal;font-variant-alternates:normal;font-feature-settings:normal;text-indent:0;text-align:start;text-decoration:none;text-decoration-line:none;text-decoration-style:solid;text-decoration-color:#000000;letter-spacing:normal;word-spacing:normal;text-transform:none;writing-mode:lr-tb;direction:ltr;text-orientation:mixed;dominant-baseline:auto;baseline-shift:baseline;text-anchor:start;white-space:normal;shape-padding:0;clip-rule:nonzero;display:inline;overflow:visible;visibility:visible;opacity:1;isolation:auto;mix-blend-mode:normal;color-interpolation:sRGB;color-interpolation-filters:linearRGB;solid-color:#000000;solid-opacity:1;vector-effect:none;fill:#000000;fill-opacity:1;fill-rule:nonzero;stroke:none;stroke-width:0.5291667;stroke-linecap:butt;stroke-linejoin:miter;stroke-miterlimit:4;stroke-dasharray:none;stroke-dashoffset:0;stroke-opacity:1;color-rendering:auto;image-rendering:auto;shape-rendering:auto;text-rendering:auto;enable-background:accumulate" d="m 3.8591961,289.32709 -1.5875,1.5875 H 0.79374949 v 0.26458 3.43959 H 2.2716961 l 1.5875,1.5875 h 1.1678868 v -6.87917 z m 2.8840616,1.19476 -0.3746553,0.37414 c 0.4962287,0.49625 0.7751471,1.16889 0.7751471,1.87068 0,0.70185 -0.2788523,1.37442 -0.7751471,1.87069 l 0.3741393,0.37465 c 0.5953946,-0.59536 0.9301745,-1.40335 0.9301745,-2.24534 0,-0.84192 -0.3343434,-1.64947 -0.9296585,-2.24482 z m -0.748792,0.74827 -0.3741367,0.37414 c 0.2977964,0.29779 0.4650872,0.70127 0.4650872,1.12241 0,0.42113 -0.1673146,0.82463 -0.4650872,1.12242 l 0.3741367,0.37413 c 0.3968644,-0.39687 0.6201172,-0.93529 0.6201172,-1.49655 0,-0.56128 -0.2232211,-1.09966 -0.6201172,-1.49655 z"></path></g></svg>