<?xml version="1.0" encoding="UTF-8" standalone="no"?>
<!-- Created with Inkscape (http://www.inkscape.org/) -->

<svg
   width="58.187164mm"
   height="17.533407mm"
   viewBox="0 0 58.187164 17.533407"
   version="1.1"
   id="svg3464"
   inkscape:version="1.1.1 (3bf5ae0d25, 2021-09-20)"
   sodipodi:docname="segmented_middle_border.svg"
   xmlns:inkscape="http://www.inkscape.org/namespaces/inkscape"
   xmlns:sodipodi="http://sodipodi.sourceforge.net/DTD/sodipodi-0.dtd"
   xmlns="http://www.w3.org/2000/svg"
   xmlns:svg="http://www.w3.org/2000/svg">
  <sodipodi:namedview
     id="namedview3466"
     pagecolor="#ffffff"
     bordercolor="#666666"
     borderopacity="1.0"
     inkscape:pageshadow="2"
     inkscape:pageopacity="0.0"
     inkscape:pagecheckerboard="0"
     inkscape:document-units="mm"
     showgrid="false"
     fit-margin-top="0"
     fit-margin-left="0"
     fit-margin-right="0"
     fit-margin-bottom="0"
     inkscape:zoom="3.0003928"
     inkscape:cx="89.321638"
     inkscape:cy="71.157349"
     inkscape:window-width="1920"
     inkscape:window-height="1019"
     inkscape:window-x="1920"
     inkscape:window-y="30"
     inkscape:window-maximized="1"
     inkscape:current-layer="layer1" />
  <defs
     id="defs3461" />
  <g
     inkscape:label="Layer 1"
     inkscape:groupmode="layer"
     id="layer1"
     transform="translate(-85.54418,-93.172727)">
    <g
       id="g1448"
       transform="matrix(0.35277777,0,0,-0.35277777,142.54072,93.174138)">
      <path
         d="m 0,0 -0.143,-0.257 c -0.03,-0.055 -0.703,-1.205 -2.485,-1.444 -0.169,0.223 -0.424,0.378 -0.725,0.378 -0.293,0 -0.541,-0.144 -0.711,-0.355 -1.268,0.162 -2.703,0.688 -4.295,1.615 l -0.116,0.067 h -141.24 l -0.116,-0.067 c -1.593,-0.927 -3.027,-1.453 -4.295,-1.615 -0.169,0.211 -0.419,0.355 -0.71,0.355 -0.302,0 -0.557,-0.155 -0.726,-0.378 -1.782,0.239 -2.454,1.389 -2.483,1.44 l -0.141,0.265 h -3.379 v -49.701 l 3.375,0.004 0.143,0.257 c 0.03,0.055 0.703,1.205 2.485,1.444 0.169,-0.224 0.424,-0.378 0.725,-0.378 0.292,0 0.541,0.144 0.711,0.355 1.268,-0.162 2.702,-0.688 4.295,-1.615 l 0.116,-0.067 h 141.24 l 0.116,0.067 c 1.592,0.927 3.027,1.453 4.295,1.615 0.168,-0.211 0.418,-0.355 0.71,-0.355 0.301,0 0.557,0.154 0.726,0.378 1.782,-0.239 2.454,-1.389 2.482,-1.44 l 0.142,-0.265 H 3.375 V 0.004 Z m -160.565,-13.289 c 0.643,-4.61 0.969,-8.775 0.969,-12.425 v 1.735 c 0,-3.65 -0.326,-7.815 -0.969,-12.425 z M 2.375,-48.697 h -1.81 c -0.36,0.489 -1.315,1.492 -3.133,1.709 -0.161,0.273 -0.446,0.467 -0.786,0.467 -0.354,0 -0.652,-0.206 -0.807,-0.498 -1.379,-0.172 -2.91,-0.72 -4.583,-1.678 h -140.702 c -1.673,0.958 -3.204,1.506 -4.583,1.678 -0.155,0.292 -0.453,0.498 -0.808,0.498 -0.34,0 -0.625,-0.194 -0.785,-0.467 -1.818,-0.217 -2.773,-1.22 -3.133,-1.709 h -1.81 v 8.996 c 0.971,5.928 1.469,11.216 1.469,15.722 v -1.735 c 0,4.506 -0.498,9.794 -1.469,15.722 v 8.996 h 1.81 c 0.36,-0.489 1.315,-1.492 3.133,-1.709 0.161,-0.274 0.445,-0.467 0.786,-0.467 0.354,0 0.652,0.206 0.807,0.498 1.379,0.172 2.91,0.72 4.583,1.678 H -8.744 c 1.673,-0.958 3.204,-1.506 4.583,-1.678 0.155,-0.292 0.453,-0.498 0.808,-0.498 0.339,0 0.625,0.193 0.785,0.467 1.818,0.217 2.773,1.22 3.133,1.709 h 1.81 V -9.992 C 1.403,-15.92 0.906,-21.208 0.906,-25.714 v 1.735 c 0,-4.506 0.497,-9.794 1.469,-15.722 z m 0,12.293 c -0.643,4.61 -0.969,8.775 -0.969,12.425 v -1.735 c 0,3.65 0.326,7.815 0.969,12.425 z"
         style="fill:#231f20;fill-opacity:1;fill-rule:nonzero;stroke:none"
         id="path1450" />
    </g>
  </g>
</svg>
