<?xml version="1.0" encoding="UTF-8" standalone="no"?>
<svg
   width="547.87836pt"
   height="544.09106pt"
   version="1.1"
   viewBox="0 0 547.87836 544.09106"
   id="svg1254"
   sodipodi:docname="cube_rotate.svg"
   inkscape:version="1.2 (dc2aeda, 2022-05-15)"
   xmlns:inkscape="http://www.inkscape.org/namespaces/inkscape"
   xmlns:sodipodi="http://sodipodi.sourceforge.net/DTD/sodipodi-0.dtd"
   xmlns="http://www.w3.org/2000/svg"
   xmlns:svg="http://www.w3.org/2000/svg">
  <sodipodi:namedview
     id="namedview1256"
     pagecolor="#ffffff"
     bordercolor="#000000"
     borderopacity="0.25"
     inkscape:showpageshadow="2"
     inkscape:pageopacity="0.0"
     inkscape:pagecheckerboard="0"
     inkscape:deskcolor="#d1d1d1"
     inkscape:document-units="pt"
     showgrid="false"
     inkscape:zoom="0.25285714"
     inkscape:cx="17.79661"
     inkscape:cy="454.80226"
     inkscape:window-width="1728"
     inkscape:window-height="1080"
     inkscape:window-x="0"
     inkscape:window-y="37"
     inkscape:window-maximized="0"
     inkscape:current-layer="svg1254" />
  <defs
     id="defs1204">
    <symbol
       id="m"
       overflow="visible">
      <path
         d="m 37.516,-2.25 c -1.9297,1.0117 -3.9453,1.7734 -6.0469,2.2812 -2.0938,0.50781 -4.2812,0.76562 -6.5625,0.76562 -6.793,0 -12.18,-1.8984 -16.156,-5.7031 -3.9688,-3.8008 -5.9531,-8.957 -5.9531,-15.469 0,-6.5195 1.9844,-11.68 5.9531,-15.484 3.9766,-3.8008 9.3633,-5.7031 16.156,-5.7031 2.2812,0 4.4688,0.25781 6.5625,0.76562 2.1016,0.51172 4.1172,1.2656 6.0469,2.2656 v 8.4531 c -1.9492,-1.332 -3.8711,-2.3047 -5.7656,-2.9219 -1.8984,-0.625 -3.8906,-0.9375 -5.9844,-0.9375 -3.7617,0 -6.7188,1.2031 -8.875,3.6094 -2.1484,2.4062 -3.2188,5.7266 -3.2188,9.9531 0,4.2109 1.0703,7.5156 3.2188,9.9219 2.1562,2.4062 5.1133,3.6094 8.875,3.6094 2.0938,0 4.0859,-0.30469 5.9844,-0.92188 1.8945,-0.625 3.8164,-1.5977 5.7656,-2.9219 z"
         id="path1165" />
    </symbol>
    <symbol
       id="b"
       overflow="visible">
      <path
         d="m 27.453,-22.281 c -0.85547,-0.40625 -1.7109,-0.70312 -2.5625,-0.89062 -0.84375,-0.19531 -1.6953,-0.29688 -2.5469,-0.29688 -2.5234,0 -4.4609,0.80859 -5.8125,2.4219 -1.3555,1.6172 -2.0312,3.9297 -2.0312,6.9375 V -10e-5 H 4.703 v -30.625 h 9.7969 v 5.0312 c 1.25,-2.0078 2.6914,-3.4727 4.3281,-4.3906 1.6328,-0.91406 3.5859,-1.375 5.8594,-1.375 0.33203,0 0.6875,0.01563 1.0625,0.04687 0.38281,0.02344 0.94141,0.07813 1.6719,0.17188 z"
         id="path1168" />
    </symbol>
    <symbol
       id="a"
       overflow="visible">
      <path
         d="m 35.281,-15.391 v 2.7812 H 12.39 c 0.23828,2.3047 1.0664,4.0273 2.4844,5.1719 1.4258,1.1484 3.4141,1.7188 5.9688,1.7188 2.0508,0 4.1562,-0.30078 6.3125,-0.90625 2.1641,-0.61328 4.3906,-1.5391 6.6719,-2.7812 v 7.5469 c -2.3125,0.875 -4.6328,1.5391 -6.9531,1.9844 -2.3125,0.44531 -4.625,0.67188 -6.9375,0.67188 -5.543,0 -9.8516,-1.4062 -12.922,-4.2188 -3.0742,-2.8203 -4.6094,-6.7734 -4.6094,-11.859 0,-5 1.5039,-8.9258 4.5156,-11.781 3.0195,-2.8633 7.1758,-4.2969 12.469,-4.2969 4.8125,0 8.6602,1.4492 11.547,4.3438 2.8945,2.8984 4.3438,6.7734 4.3438,11.625 z m -10.062,-3.2656 c 0,-1.8516 -0.54688,-3.3477 -1.6406,-4.4844 -1.0859,-1.1445 -2.5,-1.7188 -4.25,-1.7188 -1.8984,0 -3.4375,0.53906 -4.625,1.6094 -1.1797,1.0625 -1.9141,2.5938 -2.2031,4.5938 z"
         id="path1171" />
    </symbol>
    <symbol
       id="h"
       overflow="visible">
      <path
         d="m 18.438,-13.781 c -2.043,0 -3.5781,0.35156 -4.6094,1.0469 -1.0312,0.6875 -1.5469,1.7031 -1.5469,3.0469 0,1.2422 0.41016,2.2148 1.2344,2.9219 0.83203,0.69922 1.9883,1.0469 3.4688,1.0469 1.8438,0 3.3906,-0.66016 4.6406,-1.9844 1.2578,-1.3203 1.8906,-2.9727 1.8906,-4.9531 v -1.125 z m 14.953,-3.6875 V 5e-4 h -9.875 v -4.5469 c -1.3125,1.8672 -2.793,3.2266 -4.4375,4.0781 -1.6367,0.84375 -3.6328,1.2656 -5.9844,1.2656 -3.168,0 -5.7422,-0.92578 -7.7188,-2.7812 -1.9805,-1.8516 -2.9688,-4.2539 -2.9688,-7.2031 0,-3.5938 1.2344,-6.2266 3.7031,-7.9062 2.4688,-1.6758 6.3477,-2.5156 11.641,-2.5156 h 5.7656 v -0.76562 c 0,-1.5508 -0.60938,-2.6875 -1.8281,-3.4062 -1.21872,-0.7187 -3.125,-1.0781 -5.7188,-1.0781 -2.0938,0 -4.0469,0.21484 -5.8594,0.64062 -1.8047,0.41797 -3.4766,1.043 -5.0156,1.875 v -7.4688 c 2.0938,-0.50781 4.1953,-0.89453 6.3125,-1.1562 2.1133,-0.25781 4.2266,-0.39062 6.3438,-0.39062 5.5195,0 9.5039,1.0898 11.953,3.2656 2.457,2.1797 3.6875,5.7188 3.6875,10.625 z"
         id="path1174" />
    </symbol>
    <symbol
       id="g"
       overflow="visible">
      <path
         d="m 15.391,-39.328 v 8.7031 h 10.094 v 7 H 15.391 v 12.984 c 0,1.4297 0.28125,2.3906 0.84375,2.8906 0.57031,0.5 1.6953,0.75 3.375,0.75 h 5.0312 v 7 h -8.3906 c -3.8672,0 -6.6055,-0.80469 -8.2188,-2.4219 -1.6172,-1.6133 -2.4219,-4.3516 -2.4219,-8.2188 v -12.984 h -4.875 v -7 h 4.875 v -8.7031 z"
         id="path1177" />
    </symbol>
    <symbol
       id="f"
       overflow="visible">
      <path
         d="m 25.547,-26.141 v -16.406 h 9.8438 V 0 H 25.547 v -4.4375 c -1.3555,1.8125 -2.8438,3.1406 -4.4688,3.9844 -1.6172,0.83203 -3.4922,1.25 -5.625,1.25 -3.7734,0 -6.8711,-1.5 -9.2969,-4.5 -2.4297,-3 -3.6406,-6.8594 -3.6406,-11.578 0,-4.7266 1.2109,-8.5859 3.6406,-11.578 2.4258,-3 5.5234,-4.5 9.2969,-4.5 2.1133,0 3.9844,0.42188 5.6094,1.2656 1.6328,0.84375 3.1289,2.1641 4.4844,3.9531 z m -6.4531,19.828 c 2.0938,0 3.6914,-0.76562 4.7969,-2.2969 1.1016,-1.5312 1.6562,-3.7539 1.6562,-6.6719 0,-2.9141 -0.55469,-5.1406 -1.6562,-6.6719 -1.1055,-1.5312 -2.7031,-2.2969 -4.7969,-2.2969 -2.0859,0 -3.6797,0.76562 -4.7812,2.2969 -1.1055,1.5312 -1.6562,3.7578 -1.6562,6.6719 0,2.918 0.55078,5.1406 1.6562,6.6719 1.1016,1.5312 2.6953,2.2969 4.7812,2.2969 z"
         id="path1180" />
    </symbol>
    <symbol
       id="e"
       overflow="visible">
      <path
         d="m 21,-6.3125 c 2.0938,0 3.6914,-0.76562 4.7969,-2.2969 1.1016,-1.5312 1.6562,-3.7539 1.6562,-6.6719 0,-2.9141 -0.55469,-5.1406 -1.6562,-6.6719 -1.1055,-1.5312 -2.7031,-2.2969 -4.7969,-2.2969 -2.0938,0 -3.7031,0.77344 -4.8281,2.3125 -1.1172,1.5312 -1.6719,3.75 -1.6719,6.6562 0,2.8984 0.55469,5.1172 1.6719,6.6562 1.125,1.543 2.7344,2.3125 4.8281,2.3125 z m -6.5,-19.828 c 1.3438,-1.7891 2.832,-3.1094 4.4688,-3.9531 1.6445,-0.84375 3.5352,-1.2656 5.6719,-1.2656 3.7695,0 6.8672,1.5 9.2969,4.5 2.4258,2.9922 3.6406,6.8516 3.6406,11.578 0,4.7188 -1.2148,8.5781 -3.6406,11.578 -2.4297,3 -5.5273,4.5 -9.2969,4.5 -2.1367,0 -4.0273,-0.42188 -5.6719,-1.2656 C 17.3321,-1.32036 15.8438,-2.6446 14.5,-4.4376 V -10e-5 H 4.7031 v -42.547 H 14.5 Z"
         id="path1183" />
    </symbol>
    <symbol
       id="d"
       overflow="visible">
      <path
         d="m 0.6875,-30.625 h 9.7812 l 8.2344,20.781 7,-20.781 H 35.5 L 22.609,2.906 c -1.293,3.4062 -2.8047,5.7852 -4.5312,7.1406 -1.7188,1.3633 -3.9922,2.0469 -6.8125,2.0469 H 5.6091 V 5.656 h 3.0625 c 1.6562,0 2.8594,-0.26562 3.6094,-0.79688 0.75781,-0.52344 1.3516,-1.4648 1.7812,-2.8281 l 0.26562,-0.85938 z"
         id="path1186" />
    </symbol>
    <symbol
       id="c"
       overflow="visible">
      <path
         d="M 29.922,-7.4375 H 13.453 L 10.8592,0 H 0.2812 l 15.109,-40.828 h 12.562 L 43.0612,0 h -10.578 z m -13.844,-7.5781 h 11.188 l -5.5781,-16.234 z"
         id="path1189" />
    </symbol>
    <symbol
       id="l"
       overflow="visible">
      <path
         d="M 4.7031,-42.547 H 14.5 V 0 H 4.7031 Z"
         id="path1192" />
    </symbol>
    <symbol
       id="k"
       overflow="visible">
      <path
         d="M 12.438,-15.672 1.391,-30.625 h 10.375 l 6.25,9.0781 6.3438,-9.0781 h 10.375 L 23.6878,-15.719 35.2818,0 H 24.9068 L 18.0162,-9.6875 11.2193,0 H 0.8443 Z"
         id="path1195" />
    </symbol>
    <symbol
       id="j"
       overflow="visible">
      <path
         d="m 21.5,-25.016 c 1.6562,0 2.9102,-0.36328 3.7656,-1.0938 0.85156,-0.72656 1.2812,-1.8047 1.2812,-3.2344 0,-1.4062 -0.42969,-2.4727 -1.2812,-3.2031 -0.85547,-0.73828 -2.1094,-1.1094 -3.7656,-1.1094 h -5.8281 v 8.6406 z m 0.34375,17.844 c 2.1133,0 3.7031,-0.44141 4.7656,-1.3281 1.0703,-0.89453 1.6094,-2.2422 1.6094,-4.0469 0,-1.7695 -0.53125,-3.0977 -1.5938,-3.9844 -1.0547,-0.88281 -2.6484,-1.3281 -4.7812,-1.3281 h -6.1719 v 10.688 z m 9.7969,-14.672 c 2.2578,0.65625 4.0078,1.8711 5.25,3.6406 1.2383,1.7617 1.8594,3.9297 1.8594,6.5 0,3.9375 -1.3359,6.875 -4,8.8125 -2.6562,1.9297 -6.7031,2.8906 -12.141,2.8906 h -17.469 v -40.828 h 15.812 c 5.6641,0 9.7695,0.85938 12.312,2.5781 2.5391,1.7109 3.8125,4.4492 3.8125,8.2188 0,1.9922 -0.46484,3.6836 -1.3906,5.0781 -0.92969,1.3984 -2.2773,2.4336 -4.0469,3.1094 z"
         id="path1198" />
    </symbol>
    <symbol
       id="i"
       overflow="visible">
      <path
         d="m 4.375,-11.922 v -18.703 h 9.8438 v 3.0625 c 0,1.6562 -0.01172,3.7422 -0.03125,6.25 -0.01172,2.5 -0.01563,4.1719 -0.01563,5.0156 0,2.4609 0.0625,4.2305 0.1875,5.3125 0.125,1.0859 0.34375,1.875 0.65625,2.375 0.39453,0.63672 0.91406,1.125 1.5625,1.4688 0.65625,0.34375 1.3984,0.51562 2.2344,0.51562 2.0391,0 3.6445,-0.78125 4.8125,-2.3438 1.1641,-1.5703 1.75,-3.75 1.75,-6.5312 v -15.125 h 9.7969 V 2e-5 h -9.7969 v -4.4375 c -1.4805,1.793 -3.043,3.1172 -4.6875,3.9688 -1.6484,0.84375 -3.4648,1.2656 -5.4531,1.2656 -3.543,0 -6.2422,-1.082 -8.0938,-3.25 -1.8438,-2.1758 -2.7656,-5.332 -2.7656,-9.4688 z"
         id="path1201" />
    </symbol>
  </defs>
  <path
     d="m 380.09308,142.95542 c -0.0816,-0.1978 -0.20722,-0.36106 -0.30455,-0.54943 -0.14442,-0.28886 -0.29826,-0.56828 -0.47722,-0.83831 -0.52119,-0.82883 -1.12396,-1.58555 -1.87121,-2.20404 -0.044,-0.0346 -0.0628,-0.10047 -0.11616,-0.135 -0.0283,-0.0188 -0.0628,-0.0188 -0.091,-0.044 -0.81002,-0.63107 -1.75506,-1.06118 -2.75348,-1.37826 -0.24175,-0.0816 -0.48664,-0.15385 -0.73781,-0.20722 -0.24175,-0.0534 -0.47723,-0.16954 -0.7284,-0.20721 L 216.29063,114.94977 c -3.22126,-0.45839 -6.37347,0.81942 -8.35495,3.35001 l -97.82401,124.52448 c -0.16326,0.19779 -0.25117,0.43955 -0.38618,0.65619 -0.135,0.19779 -0.24175,0.39559 -0.36106,0.60281 -1.05178,1.9089 -1.35945,4.09726 -0.90108,6.21963 0.0534,0.23547 0.10675,0.45838 0.17897,0.69386 0.0722,0.24175 0.091,0.49606 0.18838,0.73781 l 58.92749,146.95705 c 1.19622,2.98898 3.89633,5.10508 7.08302,5.56346 l 156.77884,22.45186 c 0.42384,0.0628 0.85398,0.091 1.27779,0.091 1.11769,0 2.25114,-0.1978 3.35002,-0.64677 0.10674,-0.044 0.16954,-0.135 0.27001,-0.17896 0.42385,-0.18838 0.74723,-0.50549 1.14285,-0.74724 0.71897,-0.4678 1.38775,-0.93564 1.93397,-1.57606 0.11617,-0.12559 0.27001,-0.16955 0.37676,-0.29827 l 97.78382,-124.51644 c 1.99056,-2.52111 2.47402,-5.9245 1.2778,-8.9039 z M 218.8856,133.51461 355.05637,153.0119 270.07623,261.18817 133.89742,241.69088 Z m -87.54409,125.9873 136.1788,19.49729 51.2043,127.67516 -136.20292,-19.50693 z m 204.0954,140.47885 -51.20429,-127.67517 84.96406,-108.16823 51.20108,127.66713 z"
     id="path1206"
     style="stroke-width:0.803747;fill:#ffffff;fill-opacity:1" />
  <path
     d="m 82.674642,180.74759 c -4.574444,-1.9183 -9.858757,0.22605 -11.792572,4.80681 -11.359352,27.02277 -17.120609,55.7125 -17.120609,85.28556 0.0094,7.94954 0.433268,15.92383 1.268393,23.70088 0.496065,4.61841 4.392315,8.04712 8.938467,8.04712 0.32338,0 0.646767,-0.0188 0.973257,-0.0534 4.941757,-0.5306 8.523734,-4.97005 7.993503,-9.91181 -0.766068,-7.14579 -1.16479,-14.48351 -1.16479,-21.79198 0,-27.14815 5.283992,-53.49015 15.717267,-78.2994 1.918302,-4.58071 -0.232331,-9.85554 -4.813077,-11.78293 z"
     id="path1208"
     style="stroke-width:0.803747;fill:#ffffff;fill-opacity:1" />
  <path
     d="m 143.21285,113.98196 c 1.95286,0 3.92453,-0.63107 5.57285,-1.93398 26.87247,-21.208462 58.87124,-35.305375 92.5434,-40.762012 4.90728,-0.791192 8.24483,-5.419021 7.44406,-10.326538 -0.79119,-4.907276 -5.40962,-8.272965 -10.32654,-7.444061 -36.6838,5.949574 -71.53988,21.308933 -100.81395,44.416652 -3.90886,3.061149 -4.56504,8.722259 -1.48508,12.627669 1.77387,2.25113 4.4112,3.42219 7.06734,3.42219 z"
     id="path1210"
     style="stroke-width:0.803747;fill:#ffffff;fill-opacity:1" />
  <path
     d="m 185.69086,452.79174 c -30.69589,-14.91673 -57.34251,-37.5848 -77.06565,-65.54313 -2.86335,-4.05957 -8.49882,-5.03282 -12.548895,-2.16948 -4.068968,2.86335 -5.042225,8.48034 -2.169473,12.5489 21.468878,30.44512 50.491368,55.11934 83.919198,71.36708 1.26839,0.61223 2.60904,0.91049 3.92453,0.91049 3.34053,0 6.55239,-1.86493 8.10016,-5.06738 2.16947,-4.48652 0.3171,-9.87725 -4.1569,-12.04656 z"
     id="path1212"
     style="stroke-width:0.803747;fill:#ffffff;fill-opacity:1" />
  <path
     d="m 348.14415,63.489786 c -4.67178,-1.682885 -9.82983,0.756655 -11.50323,5.437829 -1.68288,4.681181 0.75666,9.829822 5.43783,11.503223 32.08396,11.487951 61.00599,31.154832 83.64592,56.874722 1.78336,2.02504 4.26677,3.05175 6.75967,3.05175 2.11611,0 4.23848,-0.73782 5.94958,-2.25114 3.72673,-3.28716 4.08777,-8.97624 0.81001,-12.70321 C 414.59784,97.416497 383.10062,76.000666 348.14728,63.489545 Z"
     id="path1214"
     style="stroke-width:0.803747;fill:#ffffff;fill-opacity:1" />
  <path
     d="m 489.04898,223.68374 c -1.05178,-4.85077 -5.8868,-7.93073 -10.70269,-6.87895 -4.86017,1.06119 -7.94013,5.86173 -6.87894,10.71234 3.08622,14.14996 4.65297,28.71546 4.64348,43.30828 0,34.27819 -8.7311,68.13602 -25.25854,97.92047 -2.41124,4.34843 -0.83831,9.82982 3.51012,12.24106 1.38775,0.76607 2.88216,1.12396 4.35783,1.12396 3.16789,0 6.23845,-1.6734 7.88677,-4.63722 17.99669,-32.45127 27.50984,-69.34164 27.50984,-106.65719 0.009,-15.85551 -1.69229,-31.71665 -5.06738,-47.13572 z"
     id="path1216"
     style="stroke-width:0.803747;fill:#ffffff;fill-opacity:1" />
  <path
     d="m 381.27459,442.19032 c -28.90675,18.13735 -62.24054,28.69939 -96.40942,30.51746 -4.96065,0.27001 -8.76888,4.50854 -8.50847,9.47859 0.25118,4.7974 4.23221,8.51489 8.98268,8.51489 0.16954,0 0.32338,0 0.49606,-0.009 37.21428,-1.99056 73.51791,-13.48446 105.00951,-33.25181 4.2134,-2.63725 5.48179,-8.19098 2.83506,-12.40503 -2.63412,-4.2228 -8.19742,-5.49119 -12.40182,-2.84454 z"
     id="path1218"
     style="stroke-width:0.803747;fill:#ffffff;fill-opacity:1" />
</svg>
