<?xml version="1.0" encoding="UTF-8" standalone="no"?>
<!-- Created with Inkscape (http://www.inkscape.org/) -->

<svg
   width="151.532"
   height="46.111336"
   viewBox="0 0 40.092855 12.200292"
   version="1.1"
   id="svg4010"
   inkscape:version="1.1.2 (0a00cf5339, 2022-02-04)"
   sodipodi:docname="proficency_input.svg"
   xmlns:inkscape="http://www.inkscape.org/namespaces/inkscape"
   xmlns:sodipodi="http://sodipodi.sourceforge.net/DTD/sodipodi-0.dtd"
   xmlns="http://www.w3.org/2000/svg"
   xmlns:svg="http://www.w3.org/2000/svg">
  <sodipodi:namedview
     id="namedview4012"
     pagecolor="#ffffff"
     bordercolor="#666666"
     borderopacity="1.0"
     inkscape:pageshadow="2"
     inkscape:pageopacity="0.0"
     inkscape:pagecheckerboard="true"
     inkscape:document-units="mm"
     showgrid="false"
     units="px"
     fit-margin-top="0"
     fit-margin-left="0"
     fit-margin-right="0"
     fit-margin-bottom="0"
     inkscape:zoom="6.0007856"
     inkscape:cx="73.157088"
     inkscape:cy="20.247349"
     inkscape:window-width="1920"
     inkscape:window-height="1019"
     inkscape:window-x="1920"
     inkscape:window-y="30"
     inkscape:window-maximized="1"
     inkscape:current-layer="layer2" />
  <defs
     id="defs4007" />
  <g
     inkscape:groupmode="layer"
     id="layer2"
     inkscape:label="Layer 2">
    <path
       style="fill:#ffffff;stroke:none;stroke-width:0.264583px;stroke-linecap:butt;stroke-linejoin:miter;stroke-opacity:1;fill-opacity:1"
       d="M 3.2275637,0.98502035 2.2369638,1.5925037 0.9346612,3.6066584 0.3142054,6.4580214 1.1927996,8.9400755 2.8398403,10.487607 2.7225312,10.968081 3.2275637,11.215575 5.4863999,11.768378 6.1030553,11.762028 9.4576399,9.9469899 11.03825,6.9055749 10.895488,4.8356969 9.7633064,2.5399748 7.993319,1.1455804 6.1030553,0.43821482 5.4863999,0.43186482 4.2743731,0.75259897 Z"
       id="path923" />
    <path
       style="fill:#ffffff;stroke:#000000;stroke-width:0.264583px;stroke-linecap:butt;stroke-linejoin:miter;stroke-opacity:1;fill-opacity:1"
       d="m 38.390493,2.0575615 0.595779,0.820082 0.887568,0.7520466 0.02387,4.9075681 -0.816131,0.6465639 -0.68643,1.0014479 H 9.2484505 L 10.762794,7.7917735 10.995402,5.719668 10.642565,3.9421641 9.2191307,2.1018058 10.578218,1.9667863 Z"
       id="path1236" />
  </g>
  <g
     inkscape:label="Layer 1"
     inkscape:groupmode="layer"
     id="layer1"
     transform="translate(-0.36919119,-0.36686201)">
    <g
       id="g1508"
       transform="matrix(0.35277777,0,0,-0.35277777,5.8090244,0.37680462)">
      <path
         d="m 0,0 c -0.192,-0.078 -0.282,-0.299 -0.206,-0.488 0.019,-0.045 0.132,-0.311 0.338,-0.708 -2.286,-0.08 -4.452,-0.629 -6.403,-1.568 1.868,0.221 4.791,0.058 7.583,-0.497 0.048,0 0.084,0.001 0.122,0.002 0.147,-0.198 0.306,-0.399 0.475,-0.603 -12.736,2.975 -16.048,-3.454 -16.048,-3.454 1.118,1.148 2.422,1.966 3.802,2.538 0.421,0.114 0.84,0.208 1.258,0.292 -3.848,-2.944 -6.341,-7.571 -6.341,-12.778 0,-5.207 2.493,-9.834 6.341,-12.777 -0.418,0.084 -0.837,0.178 -1.258,0.292 -1.38,0.571 -2.684,1.39 -3.802,2.538 0,0 3.312,-6.43 16.048,-3.454 -0.169,-0.204 -0.328,-0.405 -0.475,-0.604 -0.038,10e-4 -0.074,0.002 -0.122,0.002 -2.792,-0.554 -5.715,-0.717 -7.583,-0.497 1.951,-0.938 4.117,-1.487 6.403,-1.567 -0.206,-0.398 -0.319,-0.663 -0.338,-0.708 -0.076,-0.19 0.014,-0.41 0.206,-0.488 0.191,-0.079 0.41,0.013 0.488,0.205 0.006,0.013 3.013,5.724 6.929,6.8 1.163,0.319 2.323,0.642 3.571,0.676 -2.034,-2.181 -4.742,-3.727 -7.798,-4.28 -0.826,-0.812 -1.185,-1.562 -1.31,-2.187 2.261,0.168 4.392,0.805 6.3,1.815 l 2.145,1.375 c 0.267,0.2 0.526,0.41 0.779,0.627 h 82.681 l 0.2,0.336 c 0.575,0.965 2.385,3.618 3.848,4.306 l 0.396,0.185 v 7.405 7.406 l -0.396,0.185 c -1.463,0.688 -3.273,3.341 -3.848,4.306 l -0.2,0.336 H 11.104 c -0.253,0.217 -0.512,0.427 -0.779,0.627 L 8.18,-3.029 C 6.272,-2.02 4.141,-1.383 1.88,-1.214 2.005,-1.84 2.364,-2.589 3.19,-3.401 6.246,-3.954 8.954,-5.5 10.988,-7.682 9.74,-7.647 8.58,-7.324 7.417,-7.005 3.501,-5.93 0.494,-0.219 0.488,-0.205 0.41,-0.014 0.191,0.079 0,0 m 12.528,-28.121 c 0.324,0.351 0.632,0.717 0.924,1.096 1.225,-0.202 2.493,-0.557 3.81,-1.096 z m 84.326,4.297 c -1.66,-1.017 -3.277,-3.407 -3.842,-4.297 h -4.299 c 2.591,1.114 6.329,3.087 8.141,5.782 z m -3.842,17.418 c 0.565,-0.89 2.182,-3.281 3.842,-4.297 v -1.485 c -1.812,2.695 -5.55,4.667 -8.141,5.782 z m -80.484,0 h 4.734 c -1.317,-0.539 -2.585,-0.895 -3.81,-1.096 -0.292,0.379 -0.6,0.744 -0.924,1.096 m 6.555,-0.002 0.002,0.002 h 67.592 c 2.401,-0.894 8.705,-3.561 10.176,-7.387 v -3.471 -3.47 c -1.471,-3.827 -7.775,-6.494 -10.176,-7.387 H 19.085 l -0.002,0.002 c -1.783,0.879 -3.496,1.461 -5.138,1.773 1.784,2.585 2.834,5.71 2.834,9.082 0,3.372 -1.05,6.497 -2.834,9.082 1.642,0.313 3.355,0.895 5.138,1.774 M 3.538,-5.523 c 0.983,-0.852 2.173,-1.636 3.606,-2.18 1.415,-0.537 2.92,-0.77 4.5,-0.73 1.955,-2.417 3.135,-5.485 3.135,-8.831 0,-3.345 -1.18,-6.414 -3.135,-8.831 -1.58,0.04 -3.085,-0.192 -4.5,-0.729 -1.433,-0.544 -2.623,-1.328 -3.606,-2.18 -1.394,-0.488 -4.301,-1.336 -7.813,-1.431 -5.332,2.011 -9.145,7.144 -9.145,13.171 0,6.028 3.813,11.16 9.145,13.171 3.512,-0.094 6.419,-0.942 7.813,-1.43"
         style="fill:#231f20;fill-opacity:1;fill-rule:nonzero;stroke:none"
         id="path1510" />
    </g>
  </g>
</svg>
