<?xml version="1.0" encoding="UTF-8" standalone="no"?>
<!-- Created with Inkscape (http://www.inkscape.org/) -->

<svg
   width="58.187519mm"
   height="21.814718mm"
   viewBox="0 0 58.187519 21.814718"
   version="1.1"
   id="svg3210"
   inkscape:version="1.1.1 (3bf5ae0d25, 2021-09-20)"
   sodipodi:docname="segmented_top_border.svg"
   xmlns:inkscape="http://www.inkscape.org/namespaces/inkscape"
   xmlns:sodipodi="http://sodipodi.sourceforge.net/DTD/sodipodi-0.dtd"
   xmlns="http://www.w3.org/2000/svg"
   xmlns:svg="http://www.w3.org/2000/svg">
  <sodipodi:namedview
     id="namedview3212"
     pagecolor="#ffffff"
     bordercolor="#666666"
     borderopacity="1.0"
     inkscape:pageshadow="2"
     inkscape:pageopacity="0.0"
     inkscape:pagecheckerboard="0"
     inkscape:document-units="mm"
     showgrid="false"
     fit-margin-top="0"
     fit-margin-left="0"
     fit-margin-right="0"
     fit-margin-bottom="0"
     inkscape:zoom="3.0003928"
     inkscape:cx="77.989788"
     inkscape:cy="85.155517"
     inkscape:window-width="1920"
     inkscape:window-height="1019"
     inkscape:window-x="1920"
     inkscape:window-y="30"
     inkscape:window-maximized="1"
     inkscape:current-layer="layer1" />
  <defs
     id="defs3207" />
  <g
     inkscape:label="Layer 1"
     inkscape:groupmode="layer"
     id="layer1"
     transform="translate(-42.51075,-84.330172)">
    <g
       id="g1412"
       transform="matrix(0.35277777,0,0,-0.35277777,100.57409,85.720822)">
      <path
         d="m 0,0 c -1.141,0.354 -4.1,1.662 -4.1,3.442 v 0.5 h -156.036 v -0.5 c 0,-1.775 -2.961,-3.087 -4.101,-3.442 l -0.352,-0.109 v -57.786 l 3.375,0.004 0.144,0.257 c 0.029,0.056 0.702,1.205 2.484,1.444 0.169,-0.223 0.424,-0.378 0.726,-0.378 0.292,0 0.541,0.144 0.711,0.355 1.267,-0.162 2.702,-0.688 4.295,-1.614 l 0.116,-0.068 h 141.239 l 0.116,0.068 c 1.593,0.926 3.028,1.452 4.295,1.614 0.169,-0.211 0.419,-0.355 0.71,-0.355 0.302,0 0.558,0.155 0.727,0.378 1.782,-0.239 2.454,-1.388 2.482,-1.44 l 0.142,-0.265 h 3.379 v 57.786 z m -1.617,-5.129 c 0.533,-0.931 0.861,-1.629 0.969,-1.864 v -37.609 c -0.644,4.611 -0.969,8.776 -0.969,12.425 z m -3.435,8.071 c 0.41,-2.139 3.366,-3.397 4.404,-3.776 v -3.951 c -1.267,2.27 -3.749,5.964 -7.248,7.727 z m -154.131,0 h 2.841 c -3.498,-1.763 -5.98,-5.457 -7.247,-7.727 v 3.951 c 1.037,0.379 3.995,1.637 4.406,3.776 m -4.406,-9.935 c 0.108,0.236 0.436,0.934 0.969,1.866 v -27.05 c 0,-3.649 -0.325,-7.814 -0.969,-12.425 z m 161.13,-49.902 c -0.359,0.489 -1.314,1.492 -3.133,1.709 -0.161,0.274 -0.445,0.467 -0.786,0.467 -0.354,0 -0.651,-0.206 -0.807,-0.498 -1.378,-0.172 -2.91,-0.72 -4.583,-1.678 H -152.47 c -1.673,0.958 -3.204,1.506 -4.583,1.678 -0.155,0.292 -0.453,0.498 -0.807,0.498 -0.34,0 -0.625,-0.193 -0.785,-0.467 -1.819,-0.217 -2.774,-1.22 -3.133,-1.709 h -1.811 v 8.996 c 0.972,5.928 1.469,11.216 1.469,15.722 v 27.89 c 1.84,2.967 5.273,7.229 9.813,7.229 h 140.376 c 4.537,0 7.973,-4.265 9.814,-7.232 v -27.887 c 0,-4.506 0.497,-9.794 1.469,-15.722 v -8.996 z"
         style="fill:#231f20;fill-opacity:1;fill-rule:nonzero;stroke:none"
         id="path1414" />
    </g>
  </g>
</svg>
