<?xml version="1.0" encoding="UTF-8" standalone="no"?>
<!-- Created with Inkscape (http://www.inkscape.org/) -->

<svg
   width="40.532402mm"
   height="36.047539mm"
   viewBox="0 0 40.532402 36.047539"
   version="1.1"
   id="svg12404"
   inkscape:version="1.1.1 (3bf5ae0d25, 2021-09-20)"
   sodipodi:docname="skill_save_border.svg"
   xmlns:inkscape="http://www.inkscape.org/namespaces/inkscape"
   xmlns:sodipodi="http://sodipodi.sourceforge.net/DTD/sodipodi-0.dtd"
   xmlns="http://www.w3.org/2000/svg"
   xmlns:svg="http://www.w3.org/2000/svg">
  <sodipodi:namedview
     id="namedview12406"
     pagecolor="#ffffff"
     bordercolor="#666666"
     borderopacity="1.0"
     inkscape:pageshadow="2"
     inkscape:pageopacity="0.0"
     inkscape:pagecheckerboard="0"
     inkscape:document-units="mm"
     showgrid="false"
     fit-margin-top="0"
     fit-margin-left="0"
     fit-margin-right="0"
     fit-margin-bottom="0"
     inkscape:zoom="3.0003928"
     inkscape:cx="91.321376"
     inkscape:cy="109.15237"
     inkscape:window-width="1920"
     inkscape:window-height="1019"
     inkscape:window-x="1920"
     inkscape:window-y="30"
     inkscape:window-maximized="1"
     inkscape:current-layer="layer1" />
  <defs
     id="defs12401" />
  <g
     inkscape:label="Layer 1"
     inkscape:groupmode="layer"
     id="layer1"
     transform="translate(-106.71717,-82.857465)">
    <g
       id="g1504"
       transform="matrix(0.35277777,0,0,-0.35277777,146.42407,104.65384)">
      <path
         d="m 0,0 -0.002,17.367 c 0.316,5.131 1.078,19.529 2.257,23.355 l 0.085,0.277 -0.246,0.152 c -0.017,0.01 -0.756,0.478 -1.505,1.263 0.243,1.383 0.556,2.69 0.956,3.843 L 1.594,46.396 0.58,57.698 0.141,57.834 c -1.031,0.32 -3.969,1.605 -3.969,3.264 v 0.687 h -102.559 v -0.687 c 0,-1.66 -2.865,-2.919 -3.968,-3.264 l -0.44,-0.137 -1.014,-11.301 0.049,-0.139 c 0.4,-1.152 0.711,-2.454 0.954,-3.834 -0.746,-0.792 -1.486,-1.262 -1.503,-1.272 l -0.246,-0.153 0.085,-0.276 c 1.177,-3.821 1.939,-18.195 2.255,-23.333 l 0.002,-17.369 c -0.316,-5.131 -1.078,-15.529 -2.257,-19.354 l -0.085,-0.277 0.246,-0.153 c 0.017,-0.009 0.756,-0.476 1.505,-1.262 -0.243,-1.383 -0.555,-2.689 -0.956,-3.843 l -0.049,-0.14 1.014,-11.301 0.44,-0.136 c 1.103,-0.345 3.968,-1.604 3.968,-3.264 v -0.687 H -3.828 v 0.687 c 0,1.66 2.865,2.919 3.969,3.264 l 0.439,0.136 1.014,11.301 -0.049,0.14 c -0.399,1.151 -0.711,2.454 -0.954,3.834 0.746,0.792 1.486,1.262 1.503,1.271 l 0.246,0.154 -0.085,0.276 C 1.078,-15.514 0.316,-5.139 0,0 m -1.567,-25.444 c 0.005,-0.013 0.182,-0.431 0.415,-1.052 0.103,-0.93 0.183,-2.863 -0.544,-4.99 -1.205,-3.524 -4.152,-6.102 -8.539,-7.536 h -89.776 c -9.423,3.066 -9.32,10.331 -9.061,12.501 0.242,0.653 0.433,1.105 0.445,1.138 0.363,1.547 -0.142,2.885 -0.856,3.924 1.381,7.57 0.678,17.211 0.643,17.646 l -0.002,28.962 c 0.037,0.479 0.741,10.138 -0.644,17.711 0.711,1.048 1.211,2.4 0.839,3.972 -0.005,0.013 -0.183,0.432 -0.416,1.052 -0.103,0.929 -0.183,2.862 0.544,4.99 1.206,3.524 4.152,6.103 8.54,7.536 h 89.775 c 9.423,-3.066 9.32,-10.331 9.061,-12.501 -0.242,-0.653 -0.433,-1.105 -0.445,-1.138 -0.363,-1.547 0.142,-2.885 0.857,-3.924 C -2.113,35.276 -1.41,25.636 -1.375,25.201 l 0.002,-28.963 c -0.037,-0.478 -0.741,-10.137 0.644,-17.711 -0.71,-1.048 -1.21,-2.4 -0.838,-3.971 M 1.459,40.673 C 0.76,38.202 0.216,33.61 -0.174,29.237 -0.247,32.509 -0.198,37.272 0.44,41.501 0.852,41.118 1.227,40.836 1.459,40.673 m -2.337,5.864 c 0.035,0.082 0.464,1.09 0.868,2.338 l 0.207,-2.309 c -0.277,-0.82 -0.51,-1.707 -0.711,-2.632 -0.385,0.761 -0.588,1.644 -0.364,2.603 m 0.17,10.135 0.507,-5.657 C -0.303,50.527 -0.44,50.02 -0.59,49.531 c -0.032,0.987 -0.189,2.205 -0.634,3.504 -0.823,2.408 -2.816,5.459 -7.534,7.375 h 3.637 c 0.512,-2.105 3.276,-3.321 4.413,-3.738 m -104.386,3.738 h 3.632 c -6.802,-2.761 -8.044,-7.94 -8.146,-10.931 -0.156,0.503 -0.3,1.03 -0.406,1.535 l 0.507,5.658 c 1.137,0.417 3.902,1.633 4.413,3.738 m -5.318,-13.844 0.207,2.309 c 0.4,-1.236 0.822,-2.225 0.848,-2.276 0.228,-0.974 0.031,-1.868 -0.35,-2.638 -0.199,0.916 -0.431,1.794 -0.705,2.605 m -0.244,-5.062 c 0.638,-4.223 0.688,-8.983 0.615,-12.265 -0.391,4.372 -0.934,8.963 -1.633,11.434 0.233,0.163 0.608,0.446 1.018,0.831 m -1.018,-60.789 c 0.699,2.471 1.243,7.062 1.633,11.435 0.073,-3.271 0.024,-8.035 -0.614,-12.263 -0.411,0.383 -0.786,0.666 -1.019,0.828 m 2.337,-5.864 c -0.035,-0.083 -0.464,-1.09 -0.868,-2.338 l -0.207,2.308 c 0.277,0.82 0.511,1.706 0.711,2.632 0.386,-0.762 0.588,-1.644 0.364,-2.602 m -0.17,-10.135 -0.507,5.657 c 0.102,0.486 0.24,0.994 0.389,1.483 0.032,-0.987 0.189,-2.204 0.634,-3.503 0.823,-2.41 2.816,-5.459 7.534,-7.375 h -3.637 c -0.511,2.105 -3.276,3.321 -4.413,3.738 m 104.386,-3.738 h -3.632 c 6.802,2.76 8.044,7.94 8.147,10.931 0.155,-0.504 0.299,-1.03 0.405,-1.535 l -0.507,-5.658 c -1.137,-0.417 -3.901,-1.633 -4.413,-3.738 m 5.318,13.843 -0.207,-2.308 c -0.4,1.237 -0.822,2.223 -0.847,2.276 -0.229,0.974 -0.032,1.867 0.349,2.638 0.199,-0.916 0.431,-1.794 0.705,-2.606 m 0.244,5.063 c -0.638,4.222 -0.688,8.982 -0.615,12.264 0.391,-4.372 0.934,-8.962 1.633,-11.433 -0.232,-0.163 -0.607,-0.446 -1.018,-0.831"
         style="fill:#231f20;fill-opacity:1;fill-rule:nonzero;stroke:none"
         id="path1506" />
    </g>
  </g>
</svg>
